<?xml version="1.0" encoding="UTF-8" standalone="yes"?>
<!DOCTYPE svg PUBLIC "-//W3C//DTD SVG 1.0//EN" "http://www.w3.org/TR/2001/REC-SVG-20010904/DTD/svg10.dtd">
<svg height="550" width="550" xmlns="http://www.w3.org/2000/svg" xmlns:svg="http://www.w3.org/2000/svg" xmlns:xlink="http://www.w3.org/1999/xlink">
	<!-- Created using David Eccles' (gringer) perlshaper.pl script, version 1.63, http://en.wikipedia.org/wiki/User:Gringer/perlshaper -->
	<!-- Command line: 110m_cultural/110m_admin_0_countries.shp 110m_cultural/110m_admin_0_tiny_countries.shp -sub KOR -sub PRK -centre KOR -centre PRK -type orthographic -v -round 1 -res 0.1 -->
	<style id="mapStyle" type="text/css"><![CDATA[
/* Cascading Style Sheet (CSS) definitions for region colours */

/* land: #E0E0E0 -- outside area (or default land colour)
 * sea: #FFFFFF -- ocean / sea / lake
 * border: #646464 -- land borders
 * subject land: #336733 -- subject colour
 * other land: #C6DEBD -- other lands of the same political unity
 * coast: #646464 -- lake's coast, rivers, sea coasts
 * political border: #646464 -- Other minor political borders
 * interest border: #335033 -- border colour for areas of interest
 */

/* basic styles */
path{
   stroke-linejoin: bevel;
}

path,circle{
   stroke-width: 0.5;
}

/* Main region definition */

.region{
   fill: #E0E0E0;
   stroke: #646464;
   stroke-width: 0.5;
}

/* Political groupings */

.political{
   fill: #C6DEBD;
   stroke: #646464;
}

/* Subject / area of interest */

.subject{
   fill: #336733;
   stroke: #335033;
}

circle.highlight{
   stroke-width: 1.25;
}

/* Sea and decoration */
.seabase{
   fill: #FFFFFF;
   stroke: none;
}

.mapborder{
   fill: none;
   stroke: #646464;
}

.mapshadow{
  fill: url(#grSea);
  stroke: none;
}

/* Grid lines */
.grid{
  fill: none;
  stroke: #646464;
}

/* Colouring a particular country, use '*' with group ID */
/*
 * #gNZL *{
 *   fill: #ff0000;
 *   stroke: black;
 * }
 */
/* ...or '.' with country name */
/*
 * .NZL *{
 *   fill: #ff0000;
 *   stroke: black;
 * }
 */
]]></style>
	<defs id="defSea">
		<radialGradient class="seabase gradient" fx="0.625" fy="0.375" id="grSea">
			<stop id="sEdge" offset="0" style="stop-color:#FFFFFF;stop-opacity:0;" />
			<stop id="sMid" offset="0.707106781186547" style="stop-color:#808080;stop-opacity:0.0625;" />
			<stop id="sCentre" offset="1" style="stop-color:#000000;stop-opacity:0.25;" />
		</radialGradient>
	</defs>
	<g id="gSeaBase">
		<circle class="seabase" cx="275" cy="275" id="cSeaBase" r="250" />
	</g>
	<g class="countries" id="gCountries">
		<!-- Using data from 110m_cultural/110m_admin_0_countries.shp.shp -->
		<g id="gAFG">
			<path class="region AFG" d="M89.0,216.7 89.6,220.2 91.0,221.3 92.4,220.2 94.0,221.3 95.5,221.4 97.7,219.0 99.5,220.0 100.6,219.1 100.8,221.0 101.2,221.7 102.1,222.8 103.0,225.0 103.2,226.0 105.2,226.3 105.4,227.6 107.0,226.6 108.1,227.8 108.7,227.6 109.8,226.3 111.4,225.9 111.9,227.7 111.0,228.6 111.5,229.3 109.5,232.2 109.5,234.1 110.7,234.0 111.8,234.4 114.0,234.0 115.2,235.5 117.4,237.3 117.2,238.7 115.7,238.1 114.2,237.8 111.7,236.2 109.1,234.9 107.0,235.4 106.5,237.4 105.7,239.4 103.9,240.0 103.2,241.4 101.9,242.2 100.1,240.2 99.5,243.4 97.7,243.1 95.7,244.4 94.6,246.7 93.3,246.9 92.8,245.8 91.1,244.7 90.3,245.4 88.9,243.9 86.8,244.7 85.1,247.7 82.0,246.3 80.9,244.5 80.2,244.8 79.4,243.1 77.5,241.4 75.9,235.8 79.1,234.7 80.3,232.3 79.5,230.1 80.7,227.7 82.0,224.3 83.8,223.4 83.5,221.9 89.0,216.7Z" id="polyF1S1P1" />
		</g>
		<g id="gAGO" />
		<g id="gALB">
			<path class="region ALB" d="M96.9,112.7 96.0,113.1 94.7,114.3 93.7,115.6 93.0,116.1 92.9,115.7 92.1,116.2 91.2,116.2 91.6,115.8 92.2,115.3 93.7,113.5 95.0,112.3 96.8,111.2 97.5,110.9 98.1,110.2 99.1,109.5 100.0,109.5 99.4,109.9 99.4,110.3 98.5,111.2 97.9,111.9 96.9,112.7Z" id="polyF1S3P1" />
		</g>
		<g id="gARE">
			<path class="region ARE" d="M53.9,232.6 54.1,232.8 53.7,233.8 54.8,235.3 56.2,239.0 58.2,238.4 60.2,238.1 62.1,237.5 61.7,239.1 60.5,242.1 59.8,240.9 58.6,242.9 58.6,243.8 57.7,243.4 57.0,244.8 56.0,245.5 55.3,246.8 54.7,247.0 52.2,237.8 53.5,233.4 53.9,232.6Z" id="polyF1S4P1" />
		</g>
		<g id="gARG" />
		<g id="gARM">
			<path class="region ARM" d="M87.6,162.6 88.6,165.1 88.0,166.3 87.6,167.6 86.8,167.8 86.1,169.9 85.1,170.2 84.6,171.9 84.3,173.3 82.5,175.3 82.2,174.6 83.6,172.1 84.0,171.7 83.8,170.7 84.4,169.3 84.2,169.0 84.9,167.3 85.3,165.0 86.7,163.9 87.6,162.6Z" id="polyF1S6P1" />
		</g>
		<g id="gATA" />
		<g id="gATF" />
		<g id="gFR1">
			<path class="region FR1" d="M111.3,90.9 109.8,91.5 111.0,90.3 113.1,88.8 113.8,88.6 113.8,89.2 111.3,90.9Z" id="polyF1S56P2" />
			<path class="region FR1" d="M142.7,70.6 140.3,72.1 139.8,72.8 136.6,75.0 136.2,75.5 134.8,76.5 132.2,79.0 131.0,79.0 129.2,79.6 129.1,79.3 130.0,78.5 129.3,78.8 128.9,78.3 127.7,78.8 127.3,79.4 125.6,80.6 124.9,80.9 123.5,81.9 123.2,81.7 120.7,83.2 119.6,84.3 118.6,84.7 118.6,83.9 122.6,80.1 124.4,78.0 123.1,78.7 124.9,76.8 128.2,74.4 128.3,74.0 133.0,70.5 134.7,69.4 135.1,69.5 139.5,67.6 146.7,63.5 150.6,60.9 152.6,60.2 150.6,61.9 146.9,64.5 150.3,63.1 147.6,64.8 145.6,67.5 147.4,67.2 146.6,68.3 145.3,68.9 144.6,69.5 142.7,70.6Z" id="polyF1S56P3" />
			<path class="region FR1" d="M419.4,462.1 421.4,462.2 422.6,462.3 421.1,463.5 419.7,463.8 417.9,464.0 416.3,463.8 414.8,463.2 414.7,462.6 416.1,462.0 417.6,461.9 419.4,462.1Z" id="polyF1S114P1" />
		</g>
		<g id="gAUS" />
		<g id="gAU1">
			<path class="region AU1" d="M333.1,516.1 335.8,515.7 340.2,514.5 342.0,514.1 341.0,514.9 339.6,515.4 338.5,516.0 337.7,516.1 334.9,517.0 332.6,517.5 331.5,517.4 331.7,517.0 330.6,516.8 331.1,516.4 333.1,516.1Z" id="polyF1S9P1" />
			<path class="region AU1" d="M342.1,471.4 343.3,473.1 346.0,471.6 347.2,472.5 349.0,473.0 348.5,474.2 349.0,476.2 349.4,477.3 350.4,477.3 351.1,479.1 350.5,480.4 351.4,481.7 355.4,481.9 360.2,482.7 359.6,483.3 361.4,484.1 362.2,486.0 363.8,485.2 365.1,485.7 366.1,485.1 366.0,487.1 369.6,487.9 371.7,488.6 372.1,489.8 371.7,490.8 370.9,492.0 371.8,493.0 370.8,494.6 368.0,497.3 367.6,498.1 366.2,499.4 363.8,501.2 360.9,502.6 358.9,504.0 357.3,505.0 355.5,506.4 353.7,507.3 351.1,509.3 350.9,509.6 348.7,510.4 345.1,511.3 341.7,512.5 337.6,514.0 335.3,514.2 333.4,514.4 334.4,513.8 332.4,514.4 329.0,515.6 322.7,516.3 319.7,516.5 317.9,516.3 317.7,515.6 317.1,515.2 315.7,515.0 312.4,515.3 313.8,514.6 313.2,513.8 311.2,514.8 308.0,515.4 310.1,514.6 310.9,513.8 312.5,513.1 312.5,512.2 309.2,513.6 306.8,514.2 305.2,515.3 302.6,515.1 302.8,514.4 300.8,513.7 299.0,513.4 299.8,513.1 295.2,512.6 292.6,512.7 289.1,512.2 282.5,512.6 273.5,513.6 269.9,513.4 266.1,514.0 262.9,514.2 262.3,514.8 261.0,515.3 255.7,515.1 252.5,514.7 247.5,514.5 245.5,514.9 244.5,514.8 241.2,515.1 236.3,514.5 232.3,513.3 230.3,512.8 230.0,512.1 231.7,512.1 232.2,512.0 231.9,511.5 232.0,510.6 231.3,509.8 228.9,508.1 228.1,507.1 228.0,506.3 226.2,505.0 225.9,504.6 224.1,503.7 223.3,502.3 220.7,500.6 220.0,499.7 221.9,500.8 220.2,498.9 222.2,499.7 223.5,500.6 223.2,499.7 220.9,497.9 220.4,497.3 219.4,496.6 219.6,495.5 220.3,495.2 220.6,494.3 219.9,493.1 221.3,491.8 221.9,493.4 223.3,492.3 226.4,492.0 228.2,491.4 231.1,491.0 232.9,491.1 234.1,491.5 237.2,491.0 239.6,491.0 240.1,490.6 241.2,490.5 243.4,490.8 247.7,490.5 249.8,489.7 250.8,488.6 253.1,487.6 253.3,486.7 253.3,485.4 256.1,483.6 258.0,485.7 259.7,485.3 258.2,484.1 259.5,483.0 261.3,483.6 261.8,481.8 264.1,480.6 265.1,479.7 267.2,479.3 267.2,478.6 269.1,478.9 269.2,478.3 273.1,477.6 276.2,478.8 278.5,480.3 281.2,480.2 283.8,480.4 283.0,479.1 285.0,477.0 286.9,476.2 286.3,475.6 288.2,474.1 290.8,473.0 292.9,473.3 296.5,472.6 296.5,471.2 293.4,470.5 295.7,470.0 298.5,470.5 300.7,471.4 304.2,471.9 305.5,471.5 308.1,472.1 310.6,471.1 312.1,471.2 313.1,470.6 315.0,471.7 313.8,473.2 312.1,474.4 310.7,474.6 311.1,475.6 309.8,477.0 308.3,478.4 308.5,479.1 311.7,480.1 314.9,480.6 316.9,481.2 319.8,482.3 320.9,482.1 323.0,482.4 323.5,483.1 327.3,483.3 330.1,482.1 331.1,480.7 332.0,479.5 332.7,478.1 334.1,476.0 333.7,474.8 334.1,474.0 333.7,472.6 334.5,470.6 335.3,469.9 334.7,469.2 335.9,467.6 336.8,466.0 336.9,465.2 338.6,463.9 339.6,465.0 339.8,466.7 340.8,466.8 340.8,467.9 342.2,469.0 342.3,470.4 342.1,471.4Z" id="polyF1S9P2" />
		</g>
		<g id="gAUT">
			<path class="region AUT" d="M118.7,95.2 117.6,95.7 118.2,94.7 117.3,95.3 115.7,95.7 115.4,95.6 116.3,94.1 116.3,93.5 117.5,91.9 120.0,89.0 121.3,88.2 122.1,86.7 121.7,86.8 122.9,85.5 123.7,84.6 124.8,83.6 125.3,83.5 125.8,83.3 125.6,83.7 124.1,84.9 124.7,84.8 123.4,86.4 123.0,87.4 122.3,88.2 121.3,89.0 121.7,89.0 123.8,87.8 123.8,88.3 124.7,88.3 122.9,90.0 123.5,90.4 123.3,90.9 121.6,92.6 121.2,93.4 120.2,94.5 119.9,94.5 118.7,95.2Z" id="polyF1S10P1" />
		</g>
		<g id="gAZE">
			<path class="region AZE" d="M84.4,169.3 83.8,170.7 84.0,171.7 83.6,172.1 82.2,174.6 82.2,172.8 83.3,170.4 84.2,169.0 84.4,169.3Z" id="polyF1S11P1" />
			<path class="region AZE" d="M89.7,170.2 89.8,171.3 90.6,171.0 92.1,171.1 91.0,173.7 89.3,176.8 89.5,177.9 89.0,179.3 88.2,177.8 85.9,179.8 84.9,180.4 84.0,180.3 82.7,181.8 82.4,181.4 83.4,178.5 85.0,177.8 85.6,176.4 85.1,175.8 82.5,175.3 84.3,173.3 84.6,171.9 85.1,170.2 86.1,169.9 86.8,167.8 87.6,167.6 88.0,166.3 88.6,165.1 89.2,165.2 88.7,167.5 88.8,168.8 89.2,168.8 90.5,166.3 91.0,166.4 91.1,167.1 89.7,170.2Z" id="polyF1S11P2" />
		</g>
		<g id="gBDI" />
		<g id="gBEL">
			<path class="region BEL" d="M145.9,69.3 144.5,70.5 143.7,71.7 141.6,73.0 140.1,74.1 138.3,74.6 138.6,74.2 137.2,74.6 139.8,72.8 140.3,72.1 142.7,70.6 144.6,69.5 145.3,68.9 146.6,68.3 145.9,69.3Z" id="polyF1S13P1" />
		</g>
		<g id="gBEN" />
		<g id="gBFA" />
		<g id="gBGD">
			<path class="region BGD" d="M142.6,326.5 141.9,329.3 140.8,328.2 140.3,331.5 139.8,329.0 140.1,326.9 140.0,324.7 139.2,321.8 136.2,320.2 136.1,322.0 134.5,323.6 133.4,322.2 132.7,322.7 131.9,321.8 130.8,320.8 131.2,317.3 130.9,313.8 132.1,311.7 130.5,309.7 131.6,308.6 133.9,308.1 132.4,304.9 134.3,302.8 136.2,305.7 137.6,306.7 137.1,309.6 139.9,311.6 142.9,312.9 144.5,314.4 142.2,317.1 140.7,316.7 139.1,318.5 140.3,321.4 141.5,319.1 142.4,319.5 142.6,326.5Z" id="polyF1S16P1" />
		</g>
		<g id="gBGR">
			<path class="region BGR" d="M101.9,112.3 100.4,113.7 100.3,114.3 99.3,116.1 98.1,119.1 98.6,119.6 98.6,121.5 97.1,123.7 96.5,125.1 95.5,124.9 93.6,125.7 91.8,127.6 92.7,125.5 92.4,124.1 91.0,125.1 91.3,123.4 92.8,121.2 92.7,120.1 93.3,118.6 95.2,117.1 96.6,115.4 96.8,115.5 97.3,115.0 98.0,114.8 98.6,114.9 100.3,113.1 101.4,112.2 101.9,112.3Z" id="polyF1S17P1" />
		</g>
		<g id="gBHS" />
		<g id="gBIH">
			<path class="region BIH" d="M107.0,104.1 106.6,104.8 105.6,105.1 104.0,106.7 102.8,107.3 102.9,106.9 102.8,106.7 102.5,106.5 101.1,107.2 103.1,104.8 104.7,103.3 107.3,100.7 110.3,98.1 111.3,97.8 110.2,98.8 110.6,98.9 110.1,99.7 108.7,101.6 108.1,102.9 107.0,104.1Z" id="polyF1S19P1" />
		</g>
		<g id="gBLR">
			<path class="region BLR" d="M132.1,97.9 131.5,99.4 132.2,100.6 134.1,100.2 134.8,101.0 136.4,100.2 136.7,100.9 137.7,102.1 136.4,104.1 135.4,104.7 135.7,105.3 134.5,107.2 132.8,108.2 131.9,108.3 129.4,110.4 128.7,111.4 128.1,111.6 127.3,113.0 126.3,114.0 125.6,113.7 126.0,112.3 125.7,112.1 124.5,113.1 122.2,114.7 122.2,113.3 121.6,113.2 119.9,114.0 120.4,113.1 120.5,111.6 121.4,110.7 121.0,110.4 121.7,109.5 122.1,108.1 123.4,105.8 124.3,103.9 124.6,102.6 124.1,102.1 124.3,101.4 125.7,100.7 127.5,99.4 127.8,100.1 129.1,99.6 130.6,98.6 132.1,97.9Z" id="polyF1S20P1" />
		</g>
		<g id="gBLZ" />
		<g id="gBOL" />
		<g id="gBRA" />
		<g id="gBRN">
			<path class="region BRN" d="M217.6,416.9 219.3,415.8 223.0,414.4 222.4,418.4 220.4,418.0 219.5,419.0 217.6,416.9Z" id="polyF1S24P1" />
			<circle class="region BRN" cx="219.12" cy="417.46" id="pointF2S17P1" r="0.5" />
		</g>
		<g id="gBTN">
			<path class="region BTN" d="M145.5,302.3 146.4,304.1 145.5,306.5 142.9,305.4 140.3,303.9 138.2,303.5 135.9,300.6 136.1,299.8 139.0,297.8 141.0,297.7 142.9,299.7 144.5,300.5 145.5,302.3Z" id="polyF1S25P1" />
		</g>
		<g id="gBWA" />
		<g id="gCAF" />
		<g id="gCAN">
			<path class="region CAN" d="M306.4,27.0 304.1,26.7Z" id="polyF1S28P2" />
			<path class="region CAN" d="M431.6,97.4 432.5,98.5 432.5,100.7 431.7,100.7 431.3,101.7 430.5,101.6 430.6,103.1 429.1,102.9 428.3,102.4 428.3,100.1 428.0,98.6 429.9,98.4 430.3,97.3 431.6,97.4Z" id="polyF1S28P3" />
			<path class="region CAN" d="M285.1,25.2 287.1,25.3 283.4,25.1Z M288.5,25.4 282.9,25.3 285.1,25.2Z" id="polyF1S28P4" />
			<path class="region CAN" d="M419.7,104.6 419.0,102.9 423.0,105.2 425.3,105.0 425.5,105.7 424.3,106.0 422.9,105.8 422.0,106.2 420.6,105.8 419.4,105.2 419.7,104.6Z" id="polyF1S28P5" />
			<path class="region CAN" d="M327.6,39.0 329.3,38.9 329.9,39.2 329.9,39.6 328.4,39.6 327.7,39.3 327.6,39.0Z" id="polyF1S28P6" />
			<path class="region CAN" d="M331.3,41.0 334.4,41.4 335.6,41.9 335.4,42.2 333.2,42.0 330.9,41.1 331.3,41.0Z" id="polyF1S28P7" />
			<path class="region CAN" d="M330.6,45.2 331.3,44.8 330.2,44.6 329.8,44.0 328.8,43.1 327.5,42.1 328.3,41.7 326.9,41.3 326.3,40.7 328.4,40.9 330.6,42.1 330.6,42.7 333.3,43.0 336.8,43.6 336.1,44.2 338.5,45.1 336.0,44.8 334.1,45.3 331.6,45.8 330.6,45.2Z" id="polyF1S28P8" />
			<path class="region CAN" d="M313.5,41.7 315.4,42.2 314.9,42.8 313.3,43.2 311.8,43.0 311.0,42.4 311.7,41.9 312.1,41.8 313.5,41.7Z" id="polyF1S28P9" />
			<path class="region CAN" d="M336.0,54.9 337.7,55.0 338.3,56.2 339.5,56.7 339.7,58.0 337.8,57.6 335.8,57.4 335.4,55.9 336.0,54.9Z" id="polyF1S28P10" />
			<path class="region CAN" d="M329.0,51.9 331.6,51.0 328.0,50.8 328.0,49.5 330.1,49.0 330.4,47.9 327.3,47.9 324.4,48.3 321.9,49.4 318.6,47.7 317.8,46.4 318.7,45.9 320.8,45.7 320.9,44.8 322.0,44.3 326.3,44.8 328.7,45.5 329.6,46.3 331.1,46.1 334.4,46.1 335.9,46.0 339.2,46.4 341.5,47.4 343.8,47.8 345.4,47.5 347.5,48.4 351.4,49.1 356.0,49.8 358.6,50.0 361.6,49.9 359.6,48.5 361.0,48.0 362.0,47.5 359.0,46.1 356.4,44.4 355.3,43.4 354.9,42.7 352.9,41.6 351.5,40.7 346.0,38.4 347.9,38.4 348.9,38.2 349.2,37.6 347.2,36.5 344.8,35.8 341.9,35.4 340.7,35.8 341.4,36.4 337.1,35.3 333.5,34.7 331.2,34.5 330.4,34.8 330.5,35.6 331.8,36.7 327.8,36.5 327.2,37.2 325.2,38.5 323.6,38.2 320.8,37.1 319.1,36.5 317.1,36.3 314.2,34.6 314.1,34.2 310.6,33.4 311.6,32.8 312.3,31.8 310.5,31.4 309.5,30.7 305.8,30.5 302.7,31.0 300.9,31.1 300.0,30.2 297.9,29.0 296.1,28.1 297.4,27.9 292.6,26.9 288.8,26.5 287.2,26.3 286.5,25.9 284.5,25.8 283.6,25.7 283.6,25.4 287.6,25.4 292.2,25.7 296.0,25.9 300.8,26.4 310.6,27.6 316.4,28.5 320.2,29.1Z M314.8,28.2 310.6,27.5Z M365.0,41.8 364.4,41.6 366.6,42.5 366.3,42.4 366.7,42.5 366.5,42.5 369.3,43.8 372.5,45.5 375.9,47.0 378.3,48.3 380.4,49.3 385.1,52.3 385.4,52.6 384.6,52.5 385.3,52.9 386.2,53.1 390.5,55.8 397.2,60.4 403.5,65.2 408.6,69.6 413.4,74.2 417.8,78.9 421.9,83.9 423.1,85.6 426.6,90.6 429.5,95.5 429.6,95.7 428.2,97.6 427.5,98.2 427.5,100.7 425.0,100.3 422.8,99.2 422.2,100.7 419.6,99.8 417.8,100.7 416.0,100.0 414.0,98.4 411.8,97.6 410.4,99.3 404.3,99.2 403.0,99.9 401.6,100.3 399.9,100.4 401.3,102.3 403.6,104.5 401.3,104.8 399.8,105.1 398.8,106.0 398.8,107.4 376.6,99.2 361.7,94.8 362.5,93.2 364.3,92.1 364.5,91.1 362.7,89.9 361.2,88.4 361.3,87.1 359.1,85.3 357.6,83.7 359.1,83.2 357.9,82.4 355.9,82.0 356.1,81.4 358.9,80.2 355.7,78.7 358.6,78.8 357.3,77.6 356.0,77.2 355.6,76.1 356.3,74.8 356.2,72.7 355.9,71.4 355.0,70.5 355.8,69.3 358.7,70.6 358.0,68.9 355.4,66.4 354.0,65.7 355.1,64.6 352.4,63.8 351.9,64.8 350.2,64.3 348.9,63.3 347.8,62.7 347.8,61.9 348.6,60.9 347.2,60.0 346.7,58.3 344.5,57.2 343.0,56.0 341.3,56.5 339.8,55.9 339.0,54.6 341.6,54.0 338.6,54.0 337.7,53.4 334.5,53.9 334.0,55.1 334.1,56.2 330.9,57.0 327.6,56.9 326.8,56.0 326.9,55.0 328.4,53.1 330.7,53.2 329.0,51.9Z" id="polyF1S28P11" />
			<path class="region CAN" d="M338.9,70.3 340.9,70.6 338.4,69.0 339.3,67.8 336.7,67.3 337.2,66.5 340.0,65.4 338.2,65.2 335.2,66.3 334.1,65.8 333.9,65.0 334.4,64.0 337.1,63.0 339.1,62.4 339.2,60.8 339.0,59.3 340.4,59.1 342.3,60.3 342.9,59.6 344.4,59.6 345.7,61.1 346.4,62.6 347.7,63.6 350.5,65.0 353.1,67.2 354.9,68.8 353.6,69.3 353.6,70.5 354.7,71.3 352.6,72.4 350.1,70.5 349.3,69.3 347.7,68.3 348.2,69.9 349.9,71.7 350.7,72.9 349.7,73.3 346.8,71.4 347.8,72.7 347.8,74.1 344.4,73.5 342.6,73.0 338.8,71.1 338.9,70.3Z" id="polyF1S28P12" />
			<path class="region CAN" d="M331.2,63.9 334.1,64.0 332.9,65.5 332.2,65.4 331.1,64.6 331.2,63.9Z" id="polyF1S28P13" />
			<path class="region CAN" d="M304.4,49.6 304.8,49.2 307.2,50.0 308.7,50.2 308.9,50.4 309.1,51.6 308.3,52.1 307.7,52.0 305.4,51.0 304.4,49.6Z" id="polyF1S28P14" />
			<path class="region CAN" d="M315.6,53.8 316.2,52.6 313.4,53.2 309.8,52.8 310.0,50.6 311.5,49.8 308.6,49.4 306.7,49.6 304.9,48.1 304.0,47.0 304.5,46.3 301.7,46.0 301.2,44.8 298.4,43.5 297.6,42.7 297.2,41.2 300.5,41.1 297.5,39.6 295.2,38.9 293.6,37.4 291.0,37.0 292.0,36.2 296.0,35.2 297.8,36.0 299.6,37.6 302.0,37.8 302.8,37.2 301.5,36.2 299.5,35.3 299.0,34.9 298.6,33.8 299.9,33.2 302.1,33.8 306.0,35.4 304.3,34.1 302.8,33.2 302.8,32.9 307.8,34.1 311.2,35.5 312.8,36.4 311.8,36.5 315.7,38.7 316.1,38.4 321.3,39.7 322.2,40.5 319.8,40.8 316.7,39.9 313.0,39.1 313.1,39.6 311.8,40.0 308.3,40.5 308.1,41.2 308.2,41.7 309.8,42.9 312.2,44.1 310.8,44.2 311.3,45.4 312.4,45.8 312.8,46.6 314.1,46.4 316.7,47.1 321.0,49.2 324.5,51.7 324.6,52.5 322.3,52.4 323.9,53.2 321.7,54.5 318.6,55.1 316.6,55.1 313.3,54.3 315.6,53.8Z" id="polyF1S28P15" />
			<path class="region CAN" d="M326.6,61.7 326.3,60.9 324.4,60.0 325.0,59.5 327.2,59.6 327.1,58.3 329.9,57.6 332.6,58.3 333.3,59.0 332.8,59.8 332.6,62.0 331.5,62.2 330.2,60.8 329.1,62.0 326.6,61.7Z" id="polyF1S28P16" />
			<path class="region CAN" d="M323.3,56.6 326.4,56.5 327.4,57.2 325.5,58.4 324.1,58.9 322.4,59.0 320.8,58.8 319.0,57.7 317.8,56.5 321.6,56.2 323.3,56.6Z" id="polyF1S28P17" />
			<path class="region CAN" d="M349.0,75.0 352.2,77.3 350.7,77.7 349.6,79.5 341.6,77.6 339.5,78.3 337.6,75.9 337.8,74.9 336.8,73.0 337.4,72.3 338.4,71.4 340.0,72.3 344.0,74.0 347.3,75.0 349.0,75.0Z" id="polyF1S28P18" />
			<path class="region CAN" d="M317.6,59.3 319.2,59.2 320.2,60.0 320.4,60.9 318.7,61.1 316.8,60.7 317.0,59.9 317.6,59.3Z" id="polyF1S28P19" />
			<path class="region CAN" d="M316.3,63.7 317.2,62.8 318.7,62.2 321.3,61.7 322.9,62.4 323.2,63.2 321.4,63.7 322.8,64.5 320.3,65.3 319.7,64.7 317.6,64.3 316.8,63.6 316.3,63.7Z" id="polyF1S28P20" />
			<path class="region CAN" d="M324.3,68.2 325.3,67.7 324.2,67.3 323.7,66.7 325.2,66.2 327.2,66.2 329.9,68.1 333.0,69.5 334.0,70.5 332.8,70.7 330.1,69.6 332.9,72.5 332.9,73.4 328.5,72.9 327.0,72.5 326.9,70.7 328.1,69.2 327.3,68.2 324.8,69.6 323.0,69.4 322.8,68.7 324.3,68.2Z" id="polyF1S28P21" />
			<path class="region CAN" d="M312.5,62.5 312.6,61.6 311.1,60.8 311.3,60.0 312.4,59.5 312.1,58.8 312.1,58.2 310.0,56.8 308.0,56.5 305.9,55.9 304.6,55.3 304.3,54.3 304.9,53.6 306.0,53.4 308.0,53.6 309.0,54.3 312.2,55.2 314.2,56.1 315.4,57.0 317.0,58.6 315.8,59.4 314.5,60.1 314.1,61.1 315.3,62.2 315.3,63.1 313.8,63.4 312.5,62.5Z" id="polyF1S28P22" />
			<path class="region CAN" d="M323.0,73.5 325.9,73.2 327.6,73.5 328.2,74.0 330.6,75.1 331.9,76.0 331.5,76.9 327.9,76.0 324.6,75.0 324.1,74.2 323.0,73.5Z" id="polyF1S28P23" />
			<path class="region CAN" d="M310.7,62.7 311.1,62.8 312.2,63.7 311.6,64.2 310.3,63.3 310.3,62.8 310.7,62.7Z" id="polyF1S28P24" />
			<path class="region CAN" d="M320.0,70.4 322.0,71.1 321.5,72.1 319.9,71.9 318.9,71.3 318.8,70.4 320.0,70.4Z" id="polyF1S28P25" />
			<path class="region CAN" d="M316.5,70.8 317.8,71.3 318.5,72.1 318.0,72.2 316.4,71.9 316.4,71.6 316.5,70.8Z" id="polyF1S28P26" />
			<path class="region CAN" d="M310.5,64.2 312.1,64.5 311.9,65.2 311.0,65.8 309.8,66.4 309.2,65.8 309.0,65.5 309.3,64.6 310.5,64.2Z" id="polyF1S28P27" />
			<path class="region CAN" d="M312.3,66.3 313.4,65.6 314.1,66.4 314.0,67.5 315.1,68.6 313.5,68.4 313.3,69.2 312.1,69.7 311.5,68.7 311.3,67.2 312.3,66.3Z" id="polyF1S28P28" />
			<path class="region CAN" d="M300.4,63.6 300.4,62.7 302.1,62.6 305.2,62.0 306.7,62.5 307.7,63.4 307.3,64.4 306.3,64.9 305.0,65.1 306.1,65.7 305.8,66.5 304.8,67.4 301.9,68.1 301.1,67.9 300.7,68.3 299.4,67.8 300.2,66.5 299.8,65.7 299.3,64.9 300.4,63.6Z" id="polyF1S28P29" />
			<path class="region CAN" d="M283.3,67.1 282.0,66.7 281.0,66.3 280.2,65.5 280.4,64.9 282.2,64.1 283.9,63.8 284.7,63.4 283.3,63.2 285.5,62.1 286.9,61.7 289.2,60.3 290.9,60.3 291.7,60.0 294.2,60.4 293.3,59.9 294.2,59.7 294.4,58.6 295.7,58.2 297.5,58.0 298.6,57.4 300.4,57.3 300.7,56.9 299.1,56.5 299.5,56.0 303.1,55.8 304.9,57.1 307.8,57.9 308.8,58.7 310.2,59.5 309.1,60.2 307.1,59.9 305.6,61.1 305.0,61.0 304.0,59.5 303.5,60.9 304.2,61.8 302.7,62.1 300.9,62.0 299.9,62.5 299.9,63.6 298.9,64.6 297.4,63.8 297.1,63.4 295.3,63.7 296.4,64.4 298.7,65.2 298.8,66.3 298.2,67.2 298.1,68.0 297.2,68.6 296.0,68.6 295.4,68.4 294.0,68.2 292.4,68.6 292.0,68.3 292.1,67.5 290.5,68.5 289.6,68.6 288.5,68.5 287.0,68.2 286.9,67.9 285.2,67.9 283.3,67.1Z" id="polyF1S28P30" />
		</g>
		<g id="gCHE">
			<path class="region CHE" d="M125.8,83.3 125.3,83.5 124.8,83.6 123.7,84.6 122.9,85.5 121.8,85.9 122.0,85.4 123.4,84.0 122.6,84.1 123.2,83.4 123.9,82.8 123.8,82.3 124.4,81.6 125.6,80.6 127.3,79.4 127.7,78.8 128.9,78.3 129.3,78.8 130.0,78.5 129.1,79.3 129.2,79.6 127.9,81.0 128.2,81.1 125.8,83.3Z" id="polyF1S29P1" />
		</g>
		<g id="gCHL" />
		<g id="gCHN" />
		<g id="gCH1">
			<path class="region CH1" d="M205.0,360.4 201.4,361.6 198.3,359.7 198.6,356.2 200.8,354.8 205.1,354.5 207.4,355.1 208.1,356.8 206.2,358.2 205.0,360.4Z" id="polyF1S31P1" />
			<path class="region CH1" d="M275.4,234.0 280.3,235.3 283.8,238.3 285.1,242.3 289.6,242.1 292.0,240.3 296.6,238.6 295.5,242.6 294.5,244.3 293.9,249.1 292.1,253.5 288.4,252.9 285.8,254.6 286.8,258.2 286.6,263.4 284.9,263.6 285.0,265.8 282.9,263.3 281.7,265.8 276.7,267.7 277.2,270.0 274.4,269.9 272.9,268.5 270.6,271.6 266.9,273.8 264.1,276.5 259.4,277.6 256.8,279.5 253.1,280.4 255.0,278.5 254.4,276.8 257.2,274.1 255.7,271.7 252.7,273.0 248.7,275.7 246.4,278.3 243.1,278.2 241.2,280.0 242.6,283.1 245.3,284.1 245.3,286.1 247.9,287.6 252.0,284.8 254.9,286.8 257.1,287.0 257.6,289.3 252.6,290.2 250.8,292.4 247.2,294.3 245.2,297.2 248.8,299.9 249.9,304.3 251.9,308.4 254.2,311.9 254.0,315.1 251.6,316.1 252.3,318.4 254.5,319.9 253.7,323.4 252.6,326.7 250.4,326.9 247.4,331.3 243.9,336.6 240.0,341.2 234.3,344.5 228.5,347.3 224.1,347.1 221.5,348.6 220.3,347.1 217.8,348.8 212.2,349.9 208.0,349.7 206.2,353.8 204.0,353.6 203.3,350.4 204.4,349.0 199.4,346.6 197.5,346.9 193.8,344.9 192.2,342.8 193.2,340.6 189.9,339.0 188.3,337.0 184.8,338.3 181.1,337.8 178.2,336.9 176.1,337.3 174.1,337.3 173.8,342.1 171.9,341.4 171.7,340.3 171.9,338.6 169.1,338.9 167.6,337.6 165.3,335.2 167.0,332.2 164.9,330.7 164.8,326.7 161.0,326.0 162.5,321.4 166.5,319.1 167.4,315.8 168.0,312.7 166.8,311.2 166.3,308.3 164.2,307.9 160.8,305.9 162.4,304.7 161.6,301.5 158.8,302.3 156.4,300.2 152.0,301.2 148.2,302.9 145.5,302.3 144.5,300.5 142.9,299.7 141.0,297.7 139.0,297.8 136.1,299.8 136.8,296.5 134.7,296.4 131.4,294.1 128.4,291.4 126.7,288.3 124.8,286.2 124.6,283.8 123.3,282.3 121.6,278.0 119.9,275.4 118.5,275.6 116.1,270.4 114.7,266.2 115.9,261.6 117.4,263.4 118.4,261.5 118.4,258.8 120.1,255.9 119.8,249.6 116.9,245.1 117.8,241.8 117.2,238.7 117.4,237.3 118.3,235.0 119.2,233.6 118.4,231.7 117.5,231.5 119.1,227.7 120.2,227.3 120.4,226.2 123.4,226.2 125.2,226.6 127.1,228.9 129.3,227.2 132.3,228.8 133.9,227.9 138.5,228.4 139.3,227.8 140.4,225.5 142.4,225.6 144.4,217.7 149.5,219.1 151.0,219.0 156.6,213.3 160.1,217.1 162.3,216.1 164.6,212.4 166.6,213.1 169.7,211.5 170.7,211.6 169.8,214.6 170.6,217.6 173.2,220.7 173.2,224.7 170.1,228.8 170.2,231.0 172.8,233.0 176.0,235.1 178.1,239.0 179.5,240.1 179.3,244.3 179.9,247.4 183.0,248.4 188.5,251.5 192.5,252.1 195.1,253.7 198.7,257.5 202.3,258.5 203.3,260.2 207.4,258.9 212.6,258.6 217.2,259.4 221.1,258.7 223.7,256.8 226.2,255.8 225.9,254.2 225.3,252.4 227.4,250.0 231.9,252.0 235.3,250.2 240.1,249.2 242.7,246.6 244.9,245.7 249.3,245.5 251.6,246.2 252.0,244.7 249.7,241.5 247.5,239.9 245.1,241.2 242.4,240.2 240.7,240.5 240.2,238.7 242.9,234.7 244.7,231.6 247.8,233.6 252.1,231.3 252.2,229.4 255.2,225.1 256.8,223.9 257.0,221.5 255.7,220.4 258.0,218.5 261.3,217.9 264.7,218.0 268.6,219.4 270.8,221.0 272.4,225.3 273.4,227.2 274.4,229.8 275.4,234.0Z" id="polyF1S31P2" />
		</g>
		<g id="gCIV" />
		<g id="gCMR" />
		<g id="gCOD" />
		<g id="gCOG" />
		<g id="gCOL" />
		<g id="gCRI" />
		<g id="gCUB" />
		<g id="gCYN">
			<path class="region CYN" d="M71.3,154.2 71.3,154.4 71.8,154.1 71.6,155.8 72.2,157.1 71.2,156.7 70.8,157.3 70.9,157.0 70.7,156.7 70.8,156.3 70.7,156.3 71.2,155.7 71.2,155.2 71.1,154.8 71.3,154.2Z" id="polyF1S39P1" />
		</g>
		<g id="gCYP">
			<path class="region CYP" d="M70.8,157.3 70.5,157.6 69.8,156.3 70.3,154.8 71.3,153.3 71.3,154.2 71.1,154.8 71.2,155.2 71.2,155.7 70.7,156.3 70.8,156.3 70.7,156.7 70.9,157.0 70.8,157.3Z" id="polyF1S40P1" />
		</g>
		<g id="gCZE">
			<path class="region CZE" d="M120.2,94.5 121.2,93.4 121.6,92.6 123.3,90.9 123.5,90.4 122.9,90.0 124.7,88.3 126.7,86.8 128.0,85.6 130.5,84.3 130.3,85.2 130.7,85.5 130.5,86.4 130.8,86.6 130.1,87.2 130.0,87.8 128.5,89.0 127.4,90.3 126.7,90.6 125.5,91.8 126.1,91.7 125.1,93.0 124.0,93.6 123.1,94.9 121.2,96.4 121.4,95.9 121.0,95.9 121.1,95.6 120.5,95.8 120.5,95.5 120.2,95.6 120.2,95.2 120.7,94.4 120.2,94.5Z" id="polyF1S41P1" />
		</g>
		<g id="gDEU">
			<path class="region DEU" d="M147.9,75.9 146.6,76.3 144.7,77.9 143.6,78.2 143.1,79.6 143.3,80.2 140.9,82.2 139.4,83.3 137.5,84.2 136.9,84.1 135.4,85.0 133.4,86.0 132.4,86.3 130.0,87.8 130.1,87.2 130.8,86.6 130.5,86.4 130.7,85.5 130.3,85.2 130.5,84.3 128.0,85.6 126.7,86.8 124.7,88.3 123.8,88.3 123.8,87.8 121.7,89.0 121.3,89.0 122.3,88.2 123.0,87.4 123.4,86.4 124.7,84.8 124.1,84.9 125.6,83.7 125.8,83.3 128.2,81.1 127.9,81.0 129.2,79.6 131.0,79.0 132.2,79.0 134.8,76.5 136.2,75.5 137.4,75.1 138.3,74.6 140.1,74.1 143.4,72.8 142.5,73.7 143.3,73.8 145.7,73.3 147.0,72.8 147.4,72.9 146.4,74.1 145.5,74.5 146.2,75.1 147.6,74.4 149.5,73.9 148.1,75.1 147.9,75.9Z" id="polyF1S42P1" />
		</g>
		<g id="gDJI">
			<path class="region DJI" d="M32.3,248.4 32.1,250.1 31.7,251.3 31.2,250.6 31.2,252.7 30.6,253.4 30.6,252.2 30.5,251.8 30.3,250.2 30.8,248.0 31.8,246.9 31.9,248.4 32.3,248.4Z" id="polyF1S43P1" />
		</g>
		<g id="gDNK" />
		<g id="gDN1">
			<path class="region DN1" d="M146.8,79.3 144.9,79.2 147.8,77.2 149.3,76.6 148.8,78.4 146.8,79.3Z" id="polyF1S44P1" />
			<path class="region DN1" d="M151.5,76.1 150.5,76.1 151.2,75.6 149.7,75.1 147.9,75.9 148.1,75.1 149.5,73.9 151.7,72.9 155.0,72.2 155.6,72.2 156.2,72.4 155.4,73.5 156.0,73.8 156.0,74.7 154.4,75.0 153.6,74.9 152.6,75.2 151.5,76.1Z" id="polyF1S44P2" />
			<path class="region DN1" d="M271.8,65.3 270.4,66.9 268.5,67.0 268.3,68.0 266.7,68.5 262.9,69.1 258.4,68.5 258.4,67.4 263.1,65.6 262.5,65.3 260.7,66.1 258.4,65.9 258.0,66.9 256.8,66.3 256.2,65.0 255.6,66.2 254.0,68.1 252.0,68.5 250.5,67.9 250.8,65.6 250.6,65.1 252.1,63.9 250.6,64.4 249.6,62.9 248.6,61.5 246.0,59.7 243.5,59.1 244.7,58.5 245.4,57.4 242.6,57.3 240.4,56.1 241.2,55.5 238.0,54.8 240.1,53.8 238.0,53.7 237.6,53.1 238.8,52.3 240.3,51.8 237.5,51.3 236.6,50.8 239.7,50.5 239.7,49.9 237.7,50.1 234.9,49.9 232.7,49.1 234.6,48.0 238.9,48.4 237.2,47.7 237.8,46.5 232.3,48.2 234.2,45.9 236.6,43.8 240.4,42.2 242.1,41.7 243.1,40.9 244.0,39.2 246.7,37.7 247.9,37.4 252.2,36.1 253.2,35.2 252.7,34.4 253.2,33.6 255.8,32.5 254.4,31.8 255.3,30.1 258.3,29.8 261.8,30.2 266.1,30.0 268.2,30.3 269.8,31.2 273.4,32.4 274.4,33.1 274.6,34.1 277.1,35.2 276.4,36.1 277.5,36.6 275.8,38.2 273.4,38.7 272.8,39.3 272.6,40.5 275.1,39.7 276.5,39.5 278.4,40.0 278.3,41.1 277.7,41.9 276.4,41.9 273.4,41.5 277.1,43.0 278.5,42.8 279.6,43.3 277.9,44.8 278.6,45.4 279.5,46.7 280.6,48.6 281.9,49.5 281.6,50.2 284.2,51.6 286.3,52.0 291.6,52.6 292.4,53.4 293.2,54.9 290.4,55.0 288.5,54.8 292.0,56.0 293.4,57.2 292.7,57.9 289.0,58.2 285.5,58.7 284.9,59.4 286.5,60.5 285.4,61.2 282.4,62.4 281.4,62.5 281.3,63.6 279.7,64.0 277.8,64.3 276.0,64.2 275.3,63.5 273.8,64.8 272.3,64.0 271.4,63.8 270.0,63.2 271.7,64.3 271.8,65.3Z" id="polyF1S66P1" />
			<circle class="region DN1" cx="191.765" cy="53.55" id="pointF2S30P1" r="0.5" />
		</g>
		<g id="gDOM" />
		<g id="gDZA">
			<path class="region DZA" d="M114.6,83.2 109.7,87.7 105.4,91.9 104.6,93.1 102.7,95.1 101.5,96.3 100.4,97.6 99.6,98.1 97.2,100.2 95.8,101.3 95.7,101.2 94.0,102.8 90.8,106.3 84.5,113.2 81.3,117.0Z" id="polyF1S46P1" />
		</g>
		<g id="gECU" />
		<g id="gEGY">
			<path class="region EGY" d="M57.6,174.8 56.8,175.2 55.3,176.8 54.3,177.6 54.0,177.6 55.8,173.4 59.0,167.7 58.9,167.7 56.5,171.6 51.0,182.4 48.7,187.4 46.6,193.0 46.3,193.0 45.2,195.0 43.2,201.9 44.0,191.5 45.8,181.4 48.7,171.1 55.1,160.8 62.0,151.3 64.0,148.5 65.1,147.5 66.2,146.1 66.9,145.7 66.0,148.8 62.8,156.4 63.1,157.4 63.6,157.7 63.4,159.5 62.8,161.6 61.6,163.6 62.2,163.2 61.4,165.8 61.1,167.9 61.5,168.4 57.6,174.8Z" id="polyF1S48P1" />
		</g>
		<g id="gERI">
			<path class="region ERI" d="M31.8,246.9 32.0,244.9 32.5,241.8 32.7,239.6 33.0,237.7 33.2,234.1 33.1,232.2 33.3,230.8 33.0,230.0 33.5,226.8 32.7,228.4 32.9,224.5 33.4,223.0 35.9,217.6 36.3,217.5 36.5,218.9 37.3,218.5 34.7,227.4 34.2,230.5 32.6,244.1 32.4,246.1 32.3,248.4 31.9,248.4 31.8,246.9Z" id="polyF1S49P1" />
		</g>
		<g id="gESP">
			<path class="region ESP" d="M147.0,60.3 150.2,58.6 148.4,59.8 145.3,61.8 139.8,65.6 134.7,69.4 133.0,70.5 128.3,74.0 128.2,74.4 124.9,76.8 123.1,78.7 121.6,79.5 121.8,78.9 123.8,76.9 123.2,77.3 123.2,77.0 122.2,77.5 120.1,79.1 120.4,78.7 119.4,79.4 120.7,78.4Z M138.0,65.9 141.5,63.8 147.0,60.3Z" id="polyF1S50P1" />
		</g>
		<g id="gEST">
			<path class="region EST" d="M145.3,94.0 147.3,93.5 147.1,93.1 148.7,91.8 150.8,91.0 151.2,92.5 151.1,94.1 150.1,95.8 149.8,97.2 149.1,97.6 147.2,97.4 143.7,99.1 142.7,98.8 143.1,97.6 144.8,95.9 145.5,95.1 145.3,94.0Z" id="polyF1S51P1" />
		</g>
		<g id="gETH">
			<path class="region ETH" d="M33.5,226.8 33.0,230.0 33.3,230.8 33.1,232.2 33.2,234.1 33.0,237.7 32.7,239.6 32.5,241.8 32.0,244.9 31.8,246.9 30.8,248.0 30.3,250.2 30.5,251.8 30.6,252.2 30.6,253.4 30.2,254.0 29.7,259.5 29.6,261.7 30.8,274.7 31.4,277.0 28.0,279.3 27.4,275.8 26.7,275.6 26.5,273.9 26.3,274.2 26.1,272.2 26.1,270.0 25.8,268.8 25.6,269.4 25.5,264.7 25.8,256.4 26.3,250.5 27.2,243.2 28.1,236.4 28.3,235.5 28.2,236.9 29.0,233.4 29.7,230.8 29.8,231.2 30.1,230.1 30.7,228.9 31.1,228.9 32.0,226.9 32.9,224.5 32.7,228.4 33.5,226.8Z" id="polyF1S52P1" />
		</g>
		<g id="gFIN" />
		<g id="gFI1">
			<path class="region FI1" d="M186.8,88.0 184.0,88.4 181.0,90.6 178.2,90.3 173.4,92.7 170.2,92.8 167.0,94.7 164.6,95.0 161.6,97.7 159.7,97.8 157.8,97.3 153.6,96.0 154.0,93.6 153.4,91.7 153.5,89.6 155.8,88.3 157.6,86.7 161.1,86.1 164.7,84.7 166.6,84.8 168.5,85.4 171.6,87.2 172.1,87.8 173.8,87.3 176.2,85.4 177.9,84.7 183.9,83.7 189.7,80.2 190.4,80.7 187.9,82.0 187.6,83.2 186.2,84.5 187.7,85.1 190.5,85.1 191.4,86.4 189.5,87.9 186.8,88.0Z" id="polyF1S53P1" />
		</g>
		<g id="gFJI">
			<path class="region FJI" d="M460.1,429.3 460.7,429.3 459.7,431.1 457.9,432.7 456.6,433.5 456.8,432.6 458.2,430.9 459.2,430.3 460.1,429.3Z" id="polyF1S54P1" />
			<path class="region FJI" d="M463.2,425.8 461.3,427.7 461.3,427.0 463.7,424.5 465.5,422.4 465.1,423.8 463.2,425.8Z" id="polyF1S54P2" />
			<path class="region FJI" d="M465.3,423.4 465.1,423.8 465.5,422.4 466.1,421.9 465.3,423.4Z" id="polyF1S54P3" />
		</g>
		<g id="gFLK" />
		<g id="gGB1">
			<path class="region GB1" d="M169.3,55.5 168.5,55.1 170.3,54.2 171.4,53.4 172.4,53.5 174.1,53.1 172.7,54.1 169.3,55.5Z" id="polyF1S58P1" />
			<path class="region GB1" d="M176.1,57.5 174.7,56.5 173.5,57.7 171.8,58.9 169.9,58.9 168.8,58.1 167.0,59.3 161.9,61.1 160.4,62.1 156.3,63.5 154.7,64.2 152.3,66.0 150.7,66.2 150.7,65.7 148.6,66.7 148.7,65.8 151.0,63.9 153.2,61.8 154.6,61.0 154.6,60.4 156.6,59.1 156.9,58.4 158.4,57.6 158.3,58.8 157.2,59.9 160.5,57.7 162.0,57.2 160.9,58.3 163.3,57.3 164.7,57.3 161.9,59.2 163.2,59.1 166.0,58.0 168.5,56.4 169.6,56.0 170.2,56.3 171.5,55.9 171.1,55.4 173.8,55.0 175.9,54.3 178.1,54.6 179.1,55.3 177.7,56.2 176.1,57.5Z" id="polyF1S58P2" />
			<circle class="region GB1" cx="71.78" cy="391.285" id="pointF2S15P1" r="0.5" />
		</g>
		<g id="gFRA" />
		<g id="gGAB" />
		<g id="gGBR" />
		<g id="gGEO">
			<path class="region GEO" d="M88.3,157.1 89.6,156.3 91.5,154.0 92.5,151.9 92.8,150.5 93.6,148.9 94.0,148.9 93.6,151.1 93.5,154.5 92.5,158.6 92.0,159.4 92.7,160.2 92.5,162.7 91.4,164.5 91.0,166.4 90.5,166.3 89.2,168.8 88.8,168.8 88.7,167.5 89.2,165.2 88.6,165.1 87.6,162.6 88.7,159.3 88.3,157.1Z" id="polyF1S59P1" />
		</g>
		<g id="gGHA" />
		<g id="gGIN" />
		<g id="gGMB" />
		<g id="gGNB" />
		<g id="gGNQ" />
		<g id="gGRC">
			<path class="region GRC" d="M77.9,132.4 76.6,134.4 76.1,136.0 75.4,137.8 75.0,138.2 74.9,139.1 74.2,139.6 75.1,136.5 75.5,136.2 77.0,133.0 77.9,132.4Z" id="polyF1S65P1" />
			<path class="region GRC" d="M91.3,125.6 89.8,126.3 89.6,126.1 90.1,124.7 90.7,123.4 90.9,121.5 88.8,124.1 88.8,123.4 89.2,122.2 91.1,120.0 90.6,120.1 88.8,121.8 87.1,123.9 86.9,123.5 85.2,125.7 84.0,127.4 82.5,128.7 84.0,126.1 82.4,127.9 82.7,126.7 80.1,129.5 80.7,128.1 82.5,125.3 84.9,122.8 86.8,121.0 90.4,117.0 91.2,116.2 92.1,116.2 92.9,115.7 93.0,116.1 93.7,115.6 93.3,116.8 93.6,117.1 93.0,118.2 93.4,118.2 93.3,118.6 92.7,120.1 92.8,121.2 91.3,123.4 91.0,125.1 92.4,124.1 91.3,125.6Z" id="polyF1S65P2" />
		</g>
		<g id="gGRL" />
		<g id="gGTM" />
		<g id="gGUY" />
		<g id="gHND" />
		<g id="gHRV">
			<path class="region HRV" d="M110.2,102.0 108.8,103.1 107.7,104.2 107.0,104.1 108.1,102.9 108.7,101.6 110.1,99.7 110.6,98.9 110.2,98.8 111.3,97.8 110.3,98.1 107.3,100.7 105.7,102.2 104.7,103.3 103.1,104.8 101.1,107.2 100.7,107.3 102.8,104.8 104.4,103.0 106.3,100.8 109.4,98.0 109.3,98.2 111.1,96.7 112.0,96.1 113.3,94.7 112.4,94.8 113.7,93.7 114.7,93.3 113.7,94.6 114.0,94.7 113.1,95.5 112.6,96.3 113.4,95.9 113.3,96.3 114.4,95.9 114.3,96.9 111.6,99.7 110.2,101.6 110.2,102.0Z" id="polyF1S70P1" />
		</g>
		<g id="gHTI" />
		<g id="gHUN">
			<path class="region HUN" d="M115.7,95.7 117.3,95.3 118.2,94.7 117.6,95.7 118.7,95.2 117.4,96.5 116.7,97.3 116.3,98.6 116.8,98.4 116.6,99.1 116.6,99.7 116.3,100.0 116.3,100.7 116.8,100.7 116.7,101.2 114.9,103.6 115.1,103.8 113.8,105.3 112.9,105.9 112.7,105.1 111.0,105.4 109.4,105.4 109.6,104.3 110.3,103.0 110.2,101.6 111.6,99.7 114.3,96.9 115.5,96.0 115.7,95.7Z" id="polyF1S72P1" />
		</g>
		<g id="gIDN">
			<path class="region IDN" d="M245.8,467.0 244.1,466.9 238.3,464.4 242.3,464.2 244.6,465.3 246.1,466.2 245.8,467.0Z" id="polyF1S73P1" />
			<path class="region IDN" d="M261.8,467.6 258.1,468.0 257.6,467.7 257.9,466.8 259.8,465.1 264.0,464.1 264.4,464.7 264.5,465.6 261.8,467.6Z" id="polyF1S73P2" />
			<path class="region IDN" d="M233.6,459.8 235.2,460.7 237.8,460.7 238.9,462.1 231.1,462.2 228.8,461.9 230.2,460.4 232.5,460.7 233.6,459.8Z" id="polyF1S73P3" />
			<path class="region IDN" d="M255.1,461.5 254.5,463.1 248.0,463.5 242.3,462.7 242.3,461.6 245.7,461.3 248.4,462.4 251.2,462.3 255.1,461.5Z" id="polyF1S73P4" />
			<path class="region IDN" d="M194.6,449.5 202.5,451.4 203.4,450.4 211.2,453.2 212.8,455.4 219.1,457.0 224.3,459.4 219.6,459.8 214.9,458.0 211.1,457.4 206.8,456.4 202.9,455.1 198.1,453.1 195.0,452.1 193.4,452.1 185.9,449.1 185.1,447.7 181.4,446.5 184.0,444.3 188.9,445.7 192.3,447.7 194.0,448.3 194.6,449.5Z" id="polyF1S73P5" />
			<path class="region IDN" d="M306.2,455.2 303.9,457.4 303.5,455.2 304.3,454.0 305.2,453.0 306.2,453.8 306.2,455.2Z" id="polyF1S73P6" />
			<path class="region IDN" d="M273.8,448.0 272.2,449.0 269.2,448.4 268.3,447.0 272.7,446.9 273.8,448.0Z" id="polyF1S73P7" />
			<path class="region IDN" d="M287.8,446.6 289.4,449.0 285.7,447.8 282.1,447.6 279.6,447.9 276.6,447.8 277.7,446.0 283.1,445.8 287.8,446.6Z" id="polyF1S73P8" />
			<path class="region IDN" d="M303.8,439.5 305.0,444.6 309.4,446.2 313.1,442.4 318.0,440.0 321.9,439.5 325.5,440.2 328.6,440.9 333.2,440.8 333.0,451.0 332.7,460.5 329.1,458.7 324.8,458.7 323.7,459.7 318.3,460.5 320.2,457.9 322.9,456.7 321.9,453.6 319.9,451.3 311.7,449.6 308.1,449.7 301.7,447.3 300.4,448.9 298.7,449.3 297.8,448.2 297.8,446.9 294.4,445.5 299.1,444.1 302.2,443.9 301.9,443.1 295.5,443.5 293.8,441.6 289.9,441.2 288.1,439.7 293.9,438.6 296.2,437.4 303.1,438.3 303.8,439.5Z" id="polyF1S73P9" />
			<path class="region IDN" d="M265.1,431.9 261.5,435.1 258.3,435.6 254.1,434.8 246.8,434.5 243.1,434.7 242.4,437.1 246.3,440.4 248.7,439.0 256.8,438.4 256.4,439.9 254.5,439.3 252.6,441.1 248.8,442.1 252.9,446.5 252.2,447.5 256.1,451.3 256.1,453.4 253.8,454.1 252.1,453.0 254.1,450.6 249.9,451.5 248.8,450.6 249.4,449.4 246.2,447.4 246.5,444.3 243.6,445.0 244.0,448.7 244.3,453.2 241.6,453.4 239.7,452.3 240.9,449.6 240.2,446.5 238.4,446.3 237.0,444.0 238.8,442.1 239.4,439.6 241.5,434.8 242.4,433.5 246.1,431.3 249.5,432.5 255.0,433.3 260.0,433.4 264.3,431.1 265.1,431.9Z" id="polyF1S73P10" />
			<path class="region IDN" d="M280.1,433.0 279.9,435.9 277.6,435.6 276.9,437.6 278.7,439.4 277.5,439.8 275.8,437.7 274.5,433.4 275.3,430.7 276.8,429.4 277.1,431.3 279.7,431.6 280.1,433.0Z" id="polyF1S73P11" />
			<path class="region IDN" d="M233.1,428.3 237.9,432.0 232.8,431.8 231.4,434.0 231.6,437.0 227.5,438.7 227.4,441.9 225.8,446.6 225.2,445.4 220.4,446.1 218.6,443.9 215.6,443.3 213.5,441.9 208.5,442.2 206.9,440.4 204.2,440.1 200.8,439.0 200.1,434.6 198.0,433.2 196.0,430.0 195.4,427.0 195.9,424.0 198.4,422.2 199.0,424.6 201.9,427.1 204.6,427.0 207.3,427.7 209.7,426.4 211.7,426.5 215.7,428.1 219.2,427.9 221.4,423.4 223.1,422.5 224.6,418.7 229.5,419.3 233.2,420.3 230.8,423.2 233.9,426.8 233.1,428.3Z" id="polyF1S73P12" />
			<path class="region IDN" d="M183.0,444.0 178.6,442.9 175.1,439.4 169.9,435.3 168.1,432.9 165.1,429.4 163.1,426.4 160.0,420.8 156.6,416.9 155.5,413.6 154.2,410.5 150.8,407.1 148.9,403.4 146.2,400.4 142.5,395.0 142.3,393.0 144.6,394.1 150.4,397.0 153.6,401.7 156.4,405.1 158.5,407.3 162.0,412.2 166.0,413.6 169.3,416.9 171.6,420.4 174.6,422.8 173.0,425.1 175.3,426.9 176.7,427.3 177.4,429.8 178.9,432.0 181.8,433.1 183.9,435.6 183.0,439.2 183.0,444.0Z" id="polyF1S73P13" />
		</g>
		<g id="gIND">
			<path class="region IND" d="M119.8,249.6 120.1,255.9 118.4,258.8 118.4,261.5 117.4,263.4 115.9,261.6 114.7,266.2 116.1,270.4 118.5,275.6 116.1,276.2 113.6,279.1 115.6,282.3 117.4,285.9 120.2,290.4 123.8,293.2 124.8,296.2 126.9,297.9 130.2,300.8 132.7,302.1 133.5,300.7 133.9,298.0 134.7,296.4 136.8,296.5 135.9,300.6 138.2,303.5 140.3,303.9 142.9,305.4 145.5,306.5 146.4,304.1 145.5,302.3 148.2,302.9 152.0,301.2 156.4,300.2 158.8,302.3 161.6,301.5 162.4,304.7 160.8,305.9 164.2,307.9 164.1,309.6 162.8,309.9 162.4,312.5 160.2,310.8 155.2,311.9 154.7,314.3 152.0,316.9 151.4,318.8 149.1,321.4 146.7,319.4 145.6,323.5 144.5,324.5 144.4,326.3 142.6,326.5 142.4,319.5 141.5,319.1 140.3,321.4 139.1,318.5 140.7,316.7 142.2,317.1 144.5,314.4 142.9,312.9 139.9,311.6 137.1,309.6 137.6,306.7 136.2,305.7 134.3,302.8 132.4,304.9 133.9,308.1 131.6,308.6 130.5,309.7 132.1,311.7 130.9,313.8 131.2,317.3 130.8,320.8 130.0,322.0 127.8,320.8 123.8,319.5 123.2,322.6 121.0,323.9 115.9,324.0 111.4,326.4 108.5,327.4 105.0,328.0 104.6,329.7 102.9,329.7 100.0,329.2 98.6,328.5 97.1,330.7 96.6,336.0 96.2,339.1 94.3,341.8 93.2,347.9 91.7,347.0 90.0,348.8 90.7,350.6 87.9,349.7 86.6,351.4 85.4,351.6 83.2,346.3 82.4,335.8 81.8,333.3 81.1,328.7 81.5,323.6 81.6,320.9 80.6,313.9 82.3,300.6 83.8,296.1 84.5,292.2 80.4,291.3 79.0,289.3 77.8,282.0 79.3,281.7 79.2,279.6 78.1,274.0 80.4,273.0 85.1,277.8 86.0,274.2 85.6,271.2 86.6,268.1 86.0,265.1 90.1,263.6 92.4,266.2 96.5,264.5 99.6,262.0 103.6,260.2 104.9,257.5 107.8,257.0 106.9,253.6 107.5,250.4 108.4,246.5 110.3,245.8 113.2,249.6 116.0,251.0 119.8,249.6Z" id="polyF1S74P1" />
		</g>
		<g id="gIRL">
			<path class="region IRL" d="M168.5,55.1 166.4,55.6 165.5,55.1 167.5,53.2 170.6,51.4 171.5,52.0 174.9,51.1 174.3,52.4 174.1,53.1 172.4,53.5 171.4,53.4 170.3,54.2 168.5,55.1Z" id="polyF1S75P1" />
		</g>
		<g id="gIRN">
			<path class="region IRN" d="M84.0,196.2 85.3,197.4 87.5,197.1 88.2,198.7 89.2,199.0 89.7,200.8 89.8,204.7 90.5,206.7 89.9,212.1 90.8,213.7 89.0,216.7 83.5,221.9 83.8,223.4 82.0,224.3 80.7,227.7 79.5,230.1 80.3,232.3 79.1,234.7 75.9,235.8 75.6,238.8 75.1,241.8 75.8,245.4 74.2,248.6 74.7,250.2 74.0,252.1 70.7,250.6 68.1,253.8 65.7,248.3 64.5,244.9 63.2,241.8 64.9,236.6 64.6,234.8 63.3,233.6 61.2,232.8 60.5,228.8 60.9,223.8 60.6,220.5 61.9,215.8 64.0,209.8 63.2,209.0 63.5,206.4 62.3,206.8 63.1,203.8 64.3,202.1 64.0,201.4 65.8,199.5 67.2,195.9 67.7,191.4 69.6,186.9 71.6,185.2 72.8,185.3 74.2,183.4 74.6,181.0 79.3,172.6 80.2,172.2 83.2,168.3 84.2,169.0 83.3,170.4 82.2,172.8 82.2,174.6 82.5,175.3 85.1,175.8 85.6,176.4 85.0,177.8 83.4,178.5 82.4,181.4 82.7,181.8 81.0,184.7 81.1,187.4 80.4,190.5 81.2,194.1 83.3,196.7 84.0,196.2Z" id="polyF1S76P1" />
		</g>
		<g id="gIRQ">
			<path class="region IRQ" d="M74.6,181.0 74.2,183.4 72.8,185.3 71.6,185.2 69.6,186.9 67.7,191.4 67.2,195.9 65.8,199.5 64.0,201.4 64.3,202.1 63.1,203.8 62.3,206.8 61.8,203.3 59.3,204.5 58.4,199.8 61.8,186.8 63.0,181.2 63.5,177.6 66.3,173.1 69.2,175.4 72.3,172.8 74.1,170.6 74.9,171.1 76.7,170.5 77.2,171.1 77.3,174.0 76.7,175.5 77.4,176.1 74.6,181.0Z" id="polyF1S77P1" />
		</g>
		<g id="gISL">
			<path class="region ISL" d="M213.6,49.3 212.3,48.7 209.0,49.1 209.1,47.7 211.9,45.2 212.9,44.5 220.6,42.1 219.9,43.0 224.3,42.1 221.9,43.3 222.5,43.5 226.3,42.5 226.5,43.5 224.5,44.5 220.7,44.8 219.6,46.2 217.1,46.8 216.0,48.2 213.6,49.3Z" id="polyF1S78P1" />
		</g>
		<g id="gISR">
			<path class="region ISR" d="M64.8,167.7 64.0,168.2 64.4,166.9 62.9,168.3 62.6,169.2 62.3,168.9 61.7,169.6 62.0,170.3 61.1,171.5 57.6,174.8 61.5,168.4 62.2,168.1 62.4,167.8 63.4,167.2 65.1,165.6 65.7,165.2 65.7,166.1 66.1,165.8 66.1,166.4 65.1,167.6 64.8,167.7 64.8,167.7Z" id="polyF1S79P1" />
		</g>
		<g id="gITA">
			<path class="region ITA" d="M92.9,109.4 91.4,110.3 90.5,111.2 89.5,111.8 92.4,108.2 95.7,104.3 96.7,103.6 94.8,106.2 92.9,109.4Z" id="polyF1S80P1" />
			<path class="region ITA" d="M109.4,91.7 106.7,94.0 103.7,96.0 104.5,95.0 104.4,94.8 105.6,93.6 108.7,91.5 110.4,90.2 109.4,91.3 109.4,91.7Z" id="polyF1S80P2" />
			<path class="region ITA" d="M120.0,89.0 117.5,91.9 116.2,92.5 114.7,93.5 116.1,91.9 116.1,91.0 114.7,91.8 114.0,92.0 112.2,93.4 109.6,95.9 106.7,98.2 103.1,101.8 102.2,103.3 101.3,104.2 101.1,104.0 97.4,108.4 95.0,111.2 94.4,111.7 93.7,112.0 95.5,110.0 97.0,107.9 95.8,108.3 93.9,110.5 92.7,111.3 93.1,110.5 91.6,111.1 91.9,110.4 92.7,109.8 93.8,109.2 94.0,109.2 97.7,105.8 98.5,104.7 100.0,103.3 101.4,101.7 103.0,100.2 104.2,98.6 106.4,96.4 109.4,93.6 111.9,91.4 115.0,89.3 116.0,88.2 118.1,86.3 118.5,85.7 118.1,85.3 118.6,84.7 119.6,84.3 120.7,83.2 123.2,81.7 123.5,81.9 124.9,80.9 125.6,80.6 124.4,81.6 123.8,82.3 123.9,82.8 123.2,83.4 122.6,84.1 123.4,84.0 122.0,85.4 121.8,85.9 122.9,85.5 121.7,86.8 122.1,86.7 121.3,88.2 120.0,89.0Z" id="polyF1S80P3" />
		</g>
		<g id="gJAM" />
		<g id="gJOR">
			<path class="region JOR" d="M64.0,168.2 64.8,167.7 63.7,171.5 66.3,173.1 63.5,177.6 63.1,177.5 61.9,174.1 59.6,179.4 59.2,179.1 58.5,179.6 58.2,178.2 57.5,178.6 56.8,178.4 57.3,175.2 57.6,174.8 61.1,171.5 62.0,170.3 62.6,169.9 64.0,168.2Z" id="polyF1S82P1" />
		</g>
		<g id="gJPN">
			<path class="region JPN" d="M300.6,300.9 301.2,302.3 299.3,305.1 297.8,303.8 296.0,304.9 295.1,307.5 292.7,306.4 292.6,304.4 294.5,301.7 296.6,302.1 297.9,300.1 300.6,300.9Z" id="polyF1S83P1" />
			<path class="region JPN" d="M321.4,285.4 320.6,289.0 321.4,291.1 320.1,294.4 315.8,297.0 309.6,298.0 305.0,303.5 302.4,302.0 302.1,298.8 295.9,300.2 291.8,302.5 287.5,302.8 291.3,305.8 289.2,313.3 286.8,315.2 285.0,313.6 285.8,309.6 283.4,308.5 281.9,305.5 285.3,304.1 287.1,301.3 290.6,298.9 293.1,295.8 300.0,294.0 303.9,294.6 306.8,286.5 309.3,288.3 315.5,281.5 316.9,275.9 315.7,271.1 316.6,268.2 319.9,266.9 322.6,272.6 323.1,276.1 320.7,280.9 321.4,285.4Z" id="polyF1S83P2" />
			<path class="region JPN" d="M325.6,253.5 327.9,254.0 329.6,251.8 331.3,256.4 327.1,258.5 325.2,263.3 319.7,261.2 318.8,266.1 315.3,266.7 314.2,262.5 315.2,259.0 318.5,258.2 318.4,252.1 318.7,248.7 323.0,252.5 325.6,253.5Z" id="polyF1S83P3" />
		</g>
		<g id="gKAZ">
			<path class="region KAZ" d="M120.6,212.8 119.2,212.4 115.2,212.5 112.7,214.2 112.0,213.5 112.7,211.4 110.7,208.9 112.5,205.8 111.7,204.9 114.4,201.6 114.6,197.0 112.0,194.1 110.0,192.4 111.3,187.8 111.3,185.1 111.6,179.4 107.3,176.4 96.9,187.6 96.2,186.8 97.7,183.0 97.8,180.8 96.2,179.1 94.9,179.2 95.6,178.4 96.9,177.6 97.8,176.2 97.8,172.9 100.1,169.4 100.5,167.6 101.4,166.6 101.8,168.8 104.1,166.8 105.2,168.0 105.4,170.1 108.5,167.6 110.3,165.6 109.3,163.8 109.5,161.6 107.3,160.6 106.1,159.4 106.3,158.0 108.0,156.8 109.7,153.8 109.2,152.5 111.0,149.2 113.7,148.3 114.3,147.3 118.3,146.0 116.9,149.3 119.3,147.6 124.2,148.4 125.3,151.0 124.3,159.7 126.6,160.3 128.2,162.9 127.8,166.6 129.1,166.2 130.4,168.6 132.2,167.6 132.6,163.0 135.2,163.1 135.8,162.0 137.7,162.7 139.1,159.6 140.7,159.3 146.0,163.9 147.3,163.8 151.5,166.3 154.0,166.2 155.7,169.3 153.1,173.1 155.3,173.7 156.2,176.6 154.5,178.3 156.2,179.4 162.7,179.5 161.3,180.1 161.3,184.3 158.7,196.2 161.0,195.0 162.2,198.8 165.6,199.7 166.3,201.0 165.9,203.8 166.9,205.3 166.8,207.5 169.8,208.5 169.7,211.5 166.6,213.1 164.6,212.4 162.3,216.1 160.1,217.1 156.6,213.3 151.0,219.0 149.5,219.1 144.4,217.7 142.4,225.6 140.4,225.5 139.3,227.8 138.3,226.3 138.0,224.1 135.1,221.4 131.8,218.7 130.9,218.5 129.1,214.7 127.5,214.4 125.8,216.3 123.6,212.3 122.1,211.6 120.6,212.8Z" id="polyF1S84P1" />
		</g>
		<g id="gKEN">
			<path class="region KEN" d="M25.5,287.6 25.7,292.1 25.6,291.4 25.6,292.1 25.5,291.3Z M26.2,251.0 26.3,250.5 25.8,256.4 25.5,264.7 25.6,269.4 25.8,268.8 26.1,270.0 26.1,272.2 26.3,274.2 25.8,275.5 25.5,287.6Z" id="polyF1S85P1" />
		</g>
		<g id="gKGZ">
			<path class="region KGZ" d="M120.6,212.8 122.1,211.6 123.6,212.3 125.8,216.3 127.5,214.4 129.1,214.7 130.9,218.5 131.8,218.7 135.1,221.4 138.0,224.1 138.3,226.3 139.3,227.8 138.5,228.4 133.9,227.9 132.3,228.8 129.3,227.2 127.1,228.9 125.2,226.6 123.4,226.2 120.4,226.2 120.2,227.3 119.1,227.7 115.1,224.8 113.5,221.4 111.4,219.7 112.9,217.9 114.5,220.4 115.9,220.0 117.0,221.7 121.1,221.4 120.2,217.5 118.3,217.1 117.8,214.5 120.9,213.7 120.6,212.8Z" id="polyF1S86P1" />
		</g>
		<g id="gKHM">
			<path class="region KHM" d="M175.0,385.1 173.6,382.6 172.0,378.2 171.6,373.3 174.4,370.8 179.5,371.5 183.1,373.1 186.1,375.4 188.2,373.2 191.6,375.5 192.2,378.3 191.3,382.8 184.4,384.0 186.0,386.8 181.8,386.0 178.2,386.5 175.0,385.1Z" id="polyF1S87P1" />
		</g>
		<g id="gKOR">
			<path class="region KOR subject" d="M277.8,282.5 280.9,287.6 281.8,290.4 281.9,295.4 280.6,297.8 277.4,298.7 274.5,300.5 271.3,300.8 270.9,298.5 271.6,295.2 270.1,290.7 272.7,290.0 270.4,286.2 270.6,285.8 272.1,286.0 273.5,284.0 275.9,283.8 277.3,283.5 277.8,282.5Z" id="polyF1S88P1" />
		</g>
		<g id="gKOS">
			<path class="region KOS" d="M97.3,112.7 96.7,113.0 96.9,112.7 97.9,111.9 98.5,111.2 99.4,110.3 99.9,110.2 99.8,110.6 100.7,110.2 100.7,110.5 98.2,113.2 98.1,113.5 97.5,113.8 97.3,113.8 97.1,114.0 97.3,112.7Z" id="polyF1S89P1" />
		</g>
		<g id="gKWT">
			<path class="region KWT" d="M62.0,205.2 61.2,207.1 60.7,207.6 59.4,210.8 58.8,209.1 59.6,207.0 59.3,204.5 61.8,203.3 62.0,205.2Z" id="polyF1S90P1" />
		</g>
		<g id="gLAO">
			<path class="region LAO" d="M183.1,373.1 184.5,371.7 185.0,368.4 182.3,364.2 182.6,360.2 180.1,356.2 177.2,355.1 176.3,356.2 174.1,355.7 173.0,354.7 168.8,355.8 169.2,352.2 170.8,348.3 168.3,347.3 168.5,344.9 167.2,343.1 168.2,341.9 171.7,340.3 171.9,341.4 173.8,342.1 174.1,337.3 176.1,337.3 177.7,341.1 178.7,345.3 183.3,346.6 184.3,350.5 181.7,350.9 180.4,352.0 184.6,355.7 187.2,361.2 189.3,365.3 191.9,368.8 192.7,371.8 191.6,375.5 188.2,373.2 186.1,375.4 183.1,373.1Z" id="polyF1S91P1" />
		</g>
		<g id="gLBN">
			<path class="region LBN" d="M66.1,166.4 66.1,165.8 65.7,166.1 65.7,165.3 67.6,163.9 69.4,163.1 69.2,164.3 68.3,165.7 67.4,165.5 66.1,166.4Z" id="polyF1S92P1" />
		</g>
		<g id="gLBR" />
		<g id="gLBY">
			<path class="region LBY" d="M81.3,117.0 84.5,113.2 84.1,113.7 85.8,111.8 85.4,112.5 85.6,112.4 85.4,112.9 86.9,111.4 84.3,114.6 83.9,115.3 79.4,121.4 76.8,124.5 70.2,134.8 70.1,135.2 70.6,135.2 72.5,132.9 73.2,132.4 73.5,133.0 73.1,134.2 71.3,137.8 70.0,139.7 69.6,140.6 69.0,141.7 67.9,144.3 66.9,145.7 66.2,146.1 65.1,147.5 64.0,148.5 62.0,151.3 55.1,160.8 48.7,171.1 45.7,176.8 46.7,173.9 46.1,175.1 53.4,159.5Z" id="polyF1S94P1" />
		</g>
		<g id="gLKA">
			<path class="region LKA" d="M97.5,362.0 96.7,365.4 95.3,365.5 92.6,364.6 91.5,360.8 91.6,355.3 93.8,350.4 95.5,353.8 96.5,357.3 97.5,362.0Z" id="polyF1S95P1" />
		</g>
		<g id="gLSO" />
		<g id="gLTU">
			<path class="region LTU" d="M134.0,96.1 135.0,95.6 135.8,95.4 136.7,94.5 138.0,92.7 141.0,91.3 141.4,92.7 140.1,95.3 139.9,96.7 139.1,97.2 138.6,98.1 136.4,100.2 134.8,101.0 134.1,100.2 132.2,100.6 131.5,99.4 132.1,97.9 133.3,97.0 134.0,96.1Z" id="polyF1S97P1" />
		</g>
		<g id="gLUX">
			<path class="region LUX" d="M138.3,74.6 137.4,75.1 136.2,75.5 136.6,75.0 137.2,74.6 138.6,74.2 138.3,74.6Z" id="polyF1S98P1" />
		</g>
		<g id="gLVA">
			<path class="region LVA" d="M141.0,91.3 143.6,90.5 145.5,90.5 146.2,91.5 143.0,93.5 142.6,94.7 145.3,94.0 145.5,95.1 144.8,95.9 143.1,97.6 142.7,98.8 141.7,99.9 139.9,100.7 137.7,102.1 136.7,100.9 136.4,100.2 138.6,98.1 139.1,97.2 139.9,96.7 140.1,95.3 141.4,92.7 141.0,91.3Z" id="polyF1S99P1" />
		</g>
		<g id="gMAR" />
		<g id="gMDA">
			<path class="region MDA" d="M111.4,112.5 111.8,112.7 111.8,113.7 110.4,115.6 110.1,116.5 109.0,117.8 108.0,118.4 107.3,119.4 105.9,120.5 105.0,121.6 104.5,121.8 104.1,122.4 104.0,122.0 104.4,120.8 104.8,120.3 104.7,120.1 104.1,120.6 103.2,120.7 102.2,121.1 102.0,120.8 103.5,119.5 104.8,118.9 106.2,118.0 108.4,115.7 111.0,113.2 111.4,112.5Z" id="polyF1S101P1" />
		</g>
		<g id="gMDG">
			<path class="region MDG" d="M36.2,349.1 37.8,353.8Z " id="polyF1S102P1" />
		</g>
		<g id="gMEX">
			<path class="region MEX" d="M462.3,109.4 461.5,108.5 463.1,110.7 466.4,114.2Z M468.8,117.2 467.6,115.9 465.5,114.1 461.1,108.6 461.7,109.2 460.0,107.0Z" id="polyF1S103P1" />
		</g>
		<g id="gMKD">
			<path class="region MKD" d="M96.9,112.7 96.7,113.0 97.3,112.7 97.1,113.6 96.9,114.5 96.6,115.4 95.2,117.1 93.3,118.6 93.4,118.2 93.0,118.2 93.6,117.1 93.3,116.8 93.7,115.6 94.7,114.3 96.0,113.1 96.9,112.7Z" id="polyF1S104P1" />
		</g>
		<g id="gMLI" />
		<g id="gMMR">
			<path class="region MMR" d="M164.9,343.3 162.5,344.3 159.9,343.6 157.5,347.3 155.9,347.4 157.0,351.5 158.9,355.2 160.0,358.3 158.2,361.2 156.8,361.4 157.4,363.7 159.4,367.6 159.6,369.9 159.3,371.6 160.4,375.6 157.9,378.4 155.7,381.5 155.6,378.7 157.1,376.2 156.1,373.5 156.9,369.5 155.7,367.0 155.1,362.0 155.2,356.9 154.1,353.1 151.4,354.1 146.9,355.2 145.0,354.1 143.0,352.3 145.0,348.0 145.0,344.0 143.2,338.4 143.9,337.1 142.0,335.8 140.3,331.5 140.8,328.2 141.9,329.3 142.6,326.5 144.4,326.3 144.5,324.5 145.6,323.5 146.7,319.4 149.1,321.4 151.4,318.8 152.0,316.9 154.7,314.3 155.2,311.9 160.2,310.8 162.4,312.5 162.8,309.9 164.1,309.6 164.2,307.9 166.3,308.3 166.8,311.2 168.0,312.7 167.4,315.8 166.5,319.1 162.5,321.4 161.0,326.0 164.8,326.7 164.9,330.7 167.0,332.2 165.3,335.2 167.6,337.6 169.1,338.9 171.9,338.6 171.7,340.3 168.2,341.9 167.2,343.1 164.9,343.3Z" id="polyF1S106P1" />
		</g>
		<g id="gMNE">
			<path class="region MNE" d="M99.4,109.9 100.0,109.5 99.1,109.5 98.1,110.2 98.5,109.7 99.7,108.5 100.7,107.3 101.1,107.2 102.5,106.5 102.8,106.7 102.9,106.9 101.6,108.3 100.0,110.3 99.4,110.3 99.4,109.9Z" id="polyF1S107P1" />
		</g>
		<g id="gMNG">
			<path class="region MNG" d="M170.7,211.6 173.4,212.2 179.4,211.0 183.7,210.8 185.1,212.8 187.5,214.0 188.2,216.5 190.5,217.6 193.6,219.9 197.1,218.0 197.1,215.3 201.3,212.0 203.3,214.6 205.3,215.8 207.8,217.8 207.1,221.0 210.2,223.8 212.8,223.7 216.3,224.0 218.7,225.2 220.7,227.8 221.8,230.3 224.3,230.8 227.6,232.2 230.3,231.6 234.0,231.6 238.6,229.2 240.2,229.9 241.4,231.5 244.7,231.6 242.9,234.7 240.2,238.7 240.7,240.5 242.4,240.2 245.1,241.2 247.5,239.9 249.7,241.5 252.0,244.7 251.6,246.2 249.3,245.5 244.9,245.7 242.7,246.6 240.1,249.2 235.3,250.2 231.9,252.0 227.4,250.0 225.3,252.4 225.9,254.2 226.2,255.8 223.7,256.8 221.1,258.7 217.2,259.4 212.6,258.6 207.4,258.9 203.3,260.2 202.3,258.5 198.7,257.5 195.1,253.7 192.5,252.1 188.5,251.5 183.0,248.4 179.9,247.4 179.3,244.3 179.5,240.1 178.1,239.0 176.0,235.1 172.8,233.0 170.2,231.0 170.1,228.8 173.2,224.7 173.2,220.7 170.6,217.6 169.8,214.6 170.7,211.6Z" id="polyF1S108P1" />
		</g>
		<g id="gMOZ" />
		<g id="gMRT" />
		<g id="gMWI" />
		<g id="gMYS">
			<path class="region MYS" d="M164.3,398.4 164.5,400.3 167.1,400.7 168.5,399.7 169.4,400.3 171.6,403.1 173.1,406.0 173.3,408.4 172.8,409.9 173.1,411.2 173.4,413.3 174.7,414.7 176.3,418.1 176.2,419.3 173.3,418.7 169.6,415.1 165.0,410.9 164.6,409.0 162.4,405.9 162.0,402.9 160.7,400.5 161.3,398.0 160.5,396.2 161.2,395.8 164.3,398.4Z" id="polyF1S112P1" />
			<path class="region MYS" d="M236.4,419.5 233.2,420.3 229.5,419.3 224.6,418.7 223.1,422.5 221.4,423.4 219.2,427.9 215.7,428.1 211.7,426.5 209.7,426.4 207.3,427.7 204.6,427.0 201.9,427.1 199.0,424.6 198.4,422.2 201.4,424.0 204.6,424.0 205.5,421.3 207.3,420.9 212.4,421.1 215.5,418.8 217.6,416.9 219.5,419.0 220.4,418.0 222.4,418.4 223.0,414.4 226.3,412.3 228.5,409.8 230.2,410.0 232.4,412.1 232.5,413.7 235.3,415.0 238.9,416.4 238.6,417.8 235.7,417.7 236.4,419.5Z" id="polyF1S112P2" />
		</g>
		<g id="gNAM" />
		<g id="gNCL" />
		<g id="gNER" />
		<g id="gNGA" />
		<g id="gNIC" />
		<g id="gNLD" />
		<g id="gNL1">
			<path class="region NL1" d="M148.2,71.6 147.0,72.8 145.7,73.3 143.3,73.8 142.5,73.7 143.4,72.8 140.1,74.1 141.6,73.0 143.7,71.7 144.5,70.5 145.9,69.3 145.9,69.9 148.8,69.9 148.2,71.6Z" id="polyF1S118P1" />
		</g>
		<g id="gNOR">
			<path class="region NOR" d="M195.4,86.1 191.9,89.5 191.0,88.5 188.2,90.1 186.9,88.8 186.8,88.0 189.5,87.9 191.4,86.4 190.5,85.1 187.7,85.1 186.2,84.5 187.6,83.2 187.9,82.0 190.4,80.7 189.7,80.2 189.8,79.6 187.3,79.7 188.9,77.8 186.9,77.8 187.5,76.8 181.7,75.7 177.7,74.6 176.2,75.1 175.0,74.9 175.9,73.8 173.1,73.4 168.4,74.1 166.1,75.1 162.3,75.4 160.8,74.8 159.3,74.5 162.0,73.3 160.3,71.4 161.1,69.8 164.3,67.8 168.2,66.9 176.0,65.9 177.1,66.8 177.3,69.5 179.1,71.4 182.5,72.9 187.9,74.9 189.8,76.3 193.1,78.5 193.9,80.4 193.0,82.0 195.8,82.9 195.1,84.6 195.4,86.1Z" id="polyF1S119P1" />
			<path class="region NOR" d="M223.7,81.1 222.5,79.8 223.9,78.8 224.8,79.2 226.3,78.9 226.6,80.1 224.9,80.3 223.7,81.1Z" id="polyF1S119P2" />
			<path class="region NOR" d="M232.8,77.9 229.0,79.4 228.0,78.0 225.2,77.6 224.7,77.0 221.5,76.6 221.8,75.8 225.0,74.8 226.1,75.4 227.7,74.7 231.7,74.2 235.0,74.3 235.5,75.7 233.9,75.8 233.6,76.5 234.8,76.8 234.6,77.5 232.8,77.9Z" id="polyF1S119P3" />
			<path class="region NOR" d="M234.3,81.4 232.5,82.4 230.4,81.7 230.5,80.2 231.8,78.8 233.0,78.8 233.4,78.1 235.5,77.8 236.0,79.2 234.7,79.8 235.7,80.3 234.3,81.4Z" id="polyF1S119P4" />
			<circle class="region NOR" cx="218.485" cy="56.965" id="pointF2S31P1" r="0.5" />
		</g>
		<g id="gNPL">
			<path class="region NPL" d="M134.7,296.4 133.9,298.0 133.5,300.7 132.7,302.1 130.2,300.8 126.9,297.9 124.8,296.2 123.8,293.2 120.2,290.4 117.4,285.9 115.6,282.3 113.6,279.1 116.1,276.2 118.5,275.6 119.9,275.4 121.6,278.0 123.3,282.3 124.6,283.8 124.8,286.2 126.7,288.3 128.4,291.4 131.4,294.1 134.7,296.4Z" id="polyF1S120P1" />
		</g>
		<g id="gNZL" />
		<g id="gNZ1">
			<path class="region NZ1" d="M422.8,476.4 422.5,476.8 424.4,475.4Z M419.5,479.0 421.4,477.5 421.0,477.6 420.7,477.5 420.9,477.1 422.0,476.4 422.4,476.3 423.8,475.5 422.8,476.4Z" id="polyF1S121P2" />
		</g>
		<g id="gOMN">
			<path class="region OMN" d="M57.8,261.3 56.2,262.7 55.7,261.4 55.0,261.7 54.1,263.1 53.3,265.7 53.0,265.9 52.4,264.7 51.0,264.4 50.3,265.9 49.7,266.0 48.9,264.4 48.1,264.3 47.6,265.7 46.6,265.4 46.1,263.6 44.9,263.0 44.3,262.0 46.1,251.2 50.9,255.5 54.7,250.3 55.3,246.8 56.0,245.5 57.0,244.8 57.7,243.4 58.6,243.8 58.6,242.9 59.8,240.9 60.5,242.1 59.9,245.6 60.0,248.2 60.8,250.4 61.4,252.4 61.0,257.3 61.3,258.6 61.0,259.4 58.9,261.2 57.8,261.3Z" id="polyF1S122P1" />
			<path class="region OMN" d="M62.2,238.8 61.7,239.1 62.1,237.5 63.1,237.1 63.1,237.7 62.2,238.8Z" id="polyF1S122P2" />
		</g>
		<g id="gPAK">
			<path class="region PAK" d="M117.2,238.7 117.8,241.8 116.9,245.1 119.8,249.6 116.0,251.0 113.2,249.6 110.3,245.8 108.4,246.5 107.5,250.4 106.9,253.6 107.8,257.0 104.9,257.5 103.6,260.2 99.6,262.0 96.5,264.5 92.4,266.2 90.1,263.6 86.0,265.1 86.6,268.1 85.6,271.2 86.0,274.2 85.1,277.8 80.4,273.0 78.1,274.0 77.0,271.4 77.5,268.1 77.2,263.7 73.5,260.2 70.7,256.5 68.1,253.8 70.7,250.6 74.0,252.1 74.7,250.2 74.2,248.6 75.8,245.4 75.1,241.8 75.6,238.8 75.9,235.8 77.5,241.4 79.4,243.1 80.2,244.8 80.9,244.5 82.0,246.3 85.1,247.7 86.8,244.7 88.9,243.9 90.3,245.4 91.1,244.7 92.8,245.8 93.3,246.9 94.6,246.7 95.7,244.4 97.7,243.1 99.5,243.4 100.1,240.2 101.9,242.2 103.2,241.4 103.9,240.0 105.7,239.4 106.5,237.4 107.0,235.4 109.1,234.9 111.7,236.2 114.2,237.8 115.7,238.1 117.2,238.7Z" id="polyF1S123P1" />
		</g>
		<g id="gPAN" />
		<g id="gPER" />
		<g id="gPHL">
			<path class="region PHL" d="M270.1,407.1 270.5,409.6 270.7,411.6 269.2,414.9 267.7,411.2 265.6,413.0 267.0,415.7 265.8,417.4 260.7,415.1 259.5,412.5 260.8,410.8 258.1,408.9 256.7,410.4 254.7,410.1 251.5,412.0 250.8,410.9 252.5,407.9 255.2,407.0 257.6,405.7 259.1,407.5 262.4,406.6 263.1,404.9 266.2,404.9 265.9,402.0 269.4,403.9 270.1,407.1Z" id="polyF1S126P1" />
			<path class="region PHL" d="M259.8,399.9 258.3,401.1 256.9,403.4 255.5,404.4 252.9,401.7 253.8,400.7 254.9,399.7 255.4,397.4 257.8,397.3 257.1,399.8 260.3,396.3 259.8,399.9Z" id="polyF1S126P2" />
			<path class="region PHL" d="M236.3,401.8 230.6,404.7 232.7,402.4 235.9,400.4 238.5,398.1 240.8,394.5 241.5,397.7 238.6,399.5 236.3,401.8Z" id="polyF1S126P3" />
			<path class="region PHL" d="M251.0,393.3 253.5,394.6 256.2,394.8 256.1,396.3 254.1,397.9 251.3,398.8 251.2,397.1 251.6,395.1 251.0,393.3Z" id="polyF1S126P4" />
			<path class="region PHL" d="M266.4,392.9 267.6,397.2 264.3,396.1 264.3,397.4 265.4,399.8 263.3,400.5 263.2,397.9 261.9,397.6 261.2,395.3 263.8,395.7 263.7,394.2 261.1,391.2 265.2,391.4 266.4,392.9Z" id="polyF1S126P5" />
			<path class="region PHL" d="M249.6,388.6 248.4,391.9 246.6,389.8 244.5,386.7 248.1,387.1 249.6,388.6Z" id="polyF1S126P6" />
			<path class="region PHL" d="M249.4,367.0 251.9,368.4 253.2,367.4 253.5,368.4 252.8,370.1 254.1,373.0 253.0,376.3 250.5,377.4 249.7,380.6 250.6,383.8 252.8,384.4 254.6,384.0 259.9,386.4 259.4,388.5 260.8,389.5 260.3,391.3 257.1,389.2 255.5,387.1 254.4,388.5 251.8,386.0 247.9,386.3 245.9,385.3 246.1,383.7 247.5,382.8 246.3,381.8 245.7,383.2 243.7,380.7 243.1,379.0 243.1,375.2 244.7,376.6 245.4,370.4 246.9,366.9 249.4,367.0Z" id="polyF1S126P7" />
		</g>
		<g id="gPNG">
			<path class="region PNG" d="M392.9,439.0 391.8,439.7 390.2,439.1 388.7,437.7 388.0,435.7 388.6,435.2 388.9,436.0 390.0,436.3 391.8,437.6 393.5,438.0 392.9,439.0Z" id="polyF1S127P1" />
			<path class="region PNG" d="M378.0,439.8 375.9,440.6 375.3,441.7 371.0,444.3 368.8,444.9 365.6,444.8 363.3,444.6 363.7,443.5 367.3,443.1 369.5,442.3 370.2,440.6 370.8,440.4 371.1,441.9 373.4,441.1 374.6,439.7 376.8,438.0 376.5,436.2 378.9,435.5 379.6,435.8 379.5,437.5 378.0,439.8Z" id="polyF1S127P2" />
			<path class="region PNG" d="M358.4,450.6 361.9,451.7 364.3,454.1 366.6,453.4 366.3,454.7 369.4,454.4 368.1,455.2 372.2,455.3 371.7,456.2 369.0,457.1 368.1,456.7 360.7,457.8 357.8,456.7 355.6,455.7 353.6,453.6 348.4,453.5 344.8,455.0 342.2,456.4 342.6,458.5 339.3,460.0 337.0,459.9 332.7,460.5 333.0,451.0 333.2,440.8 340.5,441.8 348.2,442.1 351.0,443.2 353.2,444.2 353.8,445.9 360.5,446.2 361.4,447.6 357.7,448.8 358.4,450.6Z" id="polyF1S127P3" />
			<path class="region PNG" d="M382.8,435.4 381.5,436.6 380.8,435.0 380.0,434.0 376.0,432.8 373.1,432.7 374.3,431.6 376.4,431.9 379.4,432.5 380.9,433.4 382.4,433.9 382.8,435.4Z" id="polyF1S127P4" />
		</g>
		<g id="gPOL">
			<path class="region POL" d="M130.0,87.8 132.4,86.3 133.4,86.0 135.4,85.0 136.9,84.1 137.5,84.2 139.4,83.3 139.6,84.0 139.7,87.5 138.3,89.2 137.4,89.6 136.6,91.1 135.3,93.2 134.0,96.1 133.3,97.0 132.1,97.9 130.6,98.6 129.1,99.6 127.8,100.1 127.5,99.4 125.7,100.7 124.3,101.4 121.0,103.6 120.2,103.9 120.1,103.2 118.1,102.9 116.5,104.1 118.8,101.3 118.9,100.3 119.6,99.3 119.4,98.6 121.0,97.1 120.9,96.6 123.1,94.9 124.0,93.6 125.1,93.0 126.1,91.7 125.5,91.8 126.7,90.6 127.4,90.3 128.5,89.0 130.0,87.8Z" id="polyF1S128P1" />
		</g>
		<g id="gPRI" />
		<g id="gUS1">
			<path class="region US1" d="M505.1,247.3 505.2,248.2 504.8,248.4 504.4,247.3 503.8,246.6 503.6,245.1 503.2,244.6 503.1,244.1 503.2,244.0 504.1,243.4 504.5,243.4 505.2,243.9 505.3,244.2 505.1,247.3Z" id="polyF1S168P1" />
			<path class="region US1" d="M502.4,243.4 502.2,244.5 501.7,244.2 501.4,244.3 501.3,244.1 501.3,243.5 501.8,243.0 502.3,242.8 502.4,243.4Z" id="polyF1S168P2" />
			<path class="region US1" d="M500.9,243.4 501.0,243.8 500.5,245.1 500.3,244.5 500.9,243.4Z" id="polyF1S168P3" />
			<path class="region US1" d="M499.8,245.2 499.8,245.5 499.3,246.4 498.7,245.9 498.8,244.8 498.9,244.8 499.8,245.2Z" id="polyF1S168P4" />
			<path class="region US1" d="M496.9,247.2 496.9,247.8 496.2,248.1 496.2,247.0 496.5,246.5 496.9,247.2Z" id="polyF1S168P5" />
			<path class="region US1" d="M384.6,52.5 385.4,52.6 385.1,52.3 380.4,49.3 378.3,48.3 375.9,47.0 372.5,45.5 369.3,43.8 366.5,42.5 366.7,42.5 366.3,42.4 366.6,42.5 364.4,41.6 365.0,41.8Z M460.0,107.0 461.7,109.2 461.1,108.6 465.5,114.1 464.6,113.4 464.4,113.5 464.8,114.3 464.3,113.9 465.0,115.0 464.9,115.2 466.0,117.0 466.0,117.2 464.9,116.3 463.7,116.2 461.3,115.1 460.7,114.6 460.4,114.8 459.1,114.7 457.1,113.4 456.2,113.4 453.8,111.4 451.4,109.8 449.6,109.0 446.5,106.5 441.0,102.9 437.2,101.0 434.9,100.2 433.7,100.0 433.0,99.5 432.7,97.4 435.0,97.9 434.0,97.1 431.7,96.1 429.5,95.5 426.6,90.6 423.1,85.6 421.9,83.9 417.8,78.9 413.4,74.2 408.6,69.6 403.5,65.2 397.2,60.4 390.5,55.8 386.2,53.1 385.3,52.9 384.6,52.5Z" id="polyF1S168P6" />
			<path class="region US1" d="M408.4,131.0 409.4,133.4 408.2,133.6 406.4,132.7 405.6,130.6 405.3,129.4 405.8,128.6 407.1,128.7 408.4,131.0Z" id="polyF1S168P7" />
			<path class="region US1" d="M390.3,141.9 390.3,143.1 389.1,143.5 387.6,143.5 387.9,141.8 388.9,141.0 390.3,141.9Z" id="polyF1S168P8" />
			<path class="region US1" d="M371.4,138.9 372.6,138.8 372.8,137.8 374.4,137.6 375.8,136.8 376.1,137.2 376.2,138.7 374.7,138.9 373.7,138.9 373.1,140.0 372.6,140.0 371.4,138.9Z" id="polyF1S168P9" />
			<path class="region US1" d="M353.8,106.0 355.9,106.1 355.2,105.4 355.9,104.0 356.8,104.4 357.9,103.2 357.7,102.1 359.3,100.6 359.9,98.8 360.5,98.3 359.9,96.8 361.1,95.7 361.7,94.8 376.6,99.2 398.8,107.4 398.8,106.0 399.8,105.1 401.3,104.8 403.6,104.5 401.3,102.3 399.9,100.4 401.6,100.3 403.0,99.9 404.3,99.2 410.4,99.3 411.8,97.6 414.0,98.4 416.0,100.0 414.9,100.3 414.2,101.2 411.3,100.4 408.9,101.2 405.6,100.7 405.7,102.0 406.0,104.3 405.2,105.6 401.6,107.0 401.0,108.0 399.7,109.9 400.0,112.0 398.0,114.0 396.2,114.9 396.8,116.8 399.5,117.8 399.6,118.7 400.1,120.7 401.1,122.7 401.5,124.7 399.3,123.7 395.8,121.0 394.9,119.0 393.9,118.9 395.6,121.7 397.8,124.0 399.9,127.5 402.0,127.6 404.2,130.5 405.1,133.0 405.7,135.2 407.1,136.6 408.0,140.2 409.4,141.9 410.1,144.7 409.3,145.6 409.9,150.2 410.3,152.4 409.6,155.8 408.9,155.5 408.4,152.6 408.2,150.3 407.3,147.2 407.9,145.1 406.8,143.3 405.7,139.7 405.1,138.9 404.3,136.9 401.7,134.9 399.9,132.8 400.3,135.1 399.5,135.2 400.5,136.8 398.2,136.5 399.3,137.7 397.3,137.0 398.0,139.4 397.5,140.3 395.4,138.9 394.2,137.7 392.5,137.7 392.1,139.9 389.8,139.8 388.4,140.1 386.4,138.6 384.3,138.5 382.6,136.5 381.2,134.1 379.6,132.4 380.0,131.3 381.0,130.9 379.8,128.8 380.6,128.1 379.9,126.5 378.1,125.7 377.1,125.9 376.1,124.2 375.8,124.9 375.9,126.6 376.6,127.5 375.2,127.9 374.6,129.7 372.7,130.8 370.9,130.3 367.9,130.2 367.4,127.7 367.1,124.2 367.7,123.3 369.4,124.6 370.6,122.3 367.8,121.8 365.6,122.2 363.3,121.8 361.1,121.8 359.0,122.4 357.5,120.7 358.4,118.9 357.4,116.8 355.7,115.5 354.3,113.6 354.4,112.5 353.4,110.0 354.1,109.3 352.5,107.0 353.8,106.0Z" id="polyF1S168P10" />
		</g>
		<g id="gPRK">
			<path class="region PRK subject" d="M285.0,265.8 285.5,266.6 284.3,266.3 282.9,267.9 282.0,269.4 282.2,272.5 280.5,273.5 279.9,274.3 278.7,275.6 276.5,276.3 275.0,277.5 274.9,279.4 274.5,279.9 275.9,280.6 277.8,282.5 277.3,283.5 275.9,283.8 273.5,284.0 272.1,286.0 270.6,285.8 270.4,286.2 268.7,285.3 268.3,286.2 267.2,286.5 267.1,285.7 266.3,285.2 265.4,284.5 266.4,282.6 267.2,282.1 266.9,281.3 267.8,279.0 267.6,278.3 265.6,277.8 264.1,276.5 266.9,273.8 270.6,271.6 272.9,268.5 274.4,269.9 277.2,270.0 276.7,267.7 281.7,265.8 282.9,263.3 285.0,265.8Z" id="polyF1S130P1" />
		</g>
		<g id="gPRT">
			<path class="region PRT" d="M147.0,60.3 141.5,63.8 138.0,65.9Z M144.2,62.0 147.0,60.3Z" id="polyF1S131P1" />
		</g>
		<g id="gPRY" />
		<g id="gQAT">
			<path class="region QAT" d="M54.0,229.0 55.3,226.4 56.5,225.4 57.0,225.7 56.7,227.4 55.6,229.4 54.4,230.8 54.0,230.4 54.0,229.0Z" id="polyF1S133P1" />
		</g>
		<g id="gROU">
			<path class="region ROU" d="M112.9,105.9 113.3,106.3 112.5,107.6 112.0,108.8 111.0,110.1 111.2,110.5 111.1,111.7 111.7,111.7 111.4,112.5 111.0,113.2 108.4,115.7 106.2,118.0 104.8,118.9 103.5,119.5 102.0,120.8 101.3,122.0 101.5,122.6 100.8,123.9 100.0,124.4 99.6,123.9 100.0,123.1 96.5,125.1 97.1,123.7 98.6,121.5 98.6,119.6 98.1,119.1 99.3,116.1 100.3,114.3 100.4,113.7 102.5,111.6 102.8,111.8 103.4,111.0 103.0,110.9 104.4,109.2 105.6,108.3 106.9,106.7 107.9,105.9 109.6,104.3 109.4,105.4 111.0,105.4 112.7,105.1 112.9,105.9Z" id="polyF1S134P1" />
		</g>
		<g id="gRUS">
			<path class="region RUS" d="M318.9,225.8 323.3,232.7 319.0,232.1 318.5,238.5 322.2,242.4 322.7,245.4 320.0,243.2 318.7,246.8 317.5,243.3 317.1,239.1 315.9,234.6 315.9,231.3 314.9,225.6 312.5,221.7 311.5,215.9 313.5,213.6 312.1,211.9 313.0,211.1 316.1,217.6 316.9,221.7 318.9,225.8Z" id="polyF1S135P1" />
			<path class="region RUS" d="M134.0,96.1 135.3,93.2 136.6,91.1 137.9,90.9 138.0,92.7 136.7,94.5 135.8,95.4 135.0,95.6 134.0,96.1Z" id="polyF1S135P2" />
			<path class="region RUS" d="M358.8,134.7 360.2,134.7 357.5,133.0 360.4,130.8 365.3,131.3 366.0,133.4 364.9,135.3 368.3,138.0 368.6,139.0 367.6,139.9 365.7,139.7 363.4,140.2 361.7,139.2 360.1,139.8 359.4,141.2 357.6,140.7 356.7,139.4 356.2,141.2 358.1,142.2 358.9,144.0 346.2,132.5 351.0,132.6 356.7,132.9 358.8,134.7Z" id="polyF1S135P3" />
			<path class="region RUS" d="M340.1,127.3 339.3,128.3 338.1,127.5 337.9,125.5 340.1,127.3Z" id="polyF1S135P4" />
			<path class="region RUS" d="M341.0,126.2 340.1,127.3 337.9,125.5 337.8,125.3 338.5,124.7 340.7,124.4 341.1,124.8 341.0,126.2Z" id="polyF1S135P5" />
			<path class="region RUS" d="M295.0,137.4 293.2,137.8 290.6,137.8 290.3,137.6 291.1,136.0 292.4,135.5 294.6,136.5 295.0,137.4Z" id="polyF1S135P6" />
			<path class="region RUS" d="M300.4,129.1 299.8,130.8 297.9,130.9 295.4,130.0 295.2,128.8 300.4,129.1Z" id="polyF1S135P7" />
			<path class="region RUS" d="M293.8,128.9 293.9,131.6 289.8,132.2 288.1,133.3 285.4,131.3 285.5,128.8 286.7,128.0 289.5,127.7 293.8,128.9Z" id="polyF1S135P8" />
			<path class="region RUS" d="M197.4,113.4 196.8,113.0 195.9,109.9 197.5,108.8 198.0,106.8 200.1,105.8 201.3,106.2 203.5,105.3 207.6,105.4 207.8,104.5 212.1,104.8 213.8,103.8 216.7,104.4 220.6,105.3 222.8,106.9 225.0,107.2 226.4,108.0 225.3,109.2 223.8,109.5 216.9,107.5 211.9,107.2 207.4,107.9 203.0,108.4 199.8,110.1 197.4,113.4Z" id="polyF1S135P9" />
			<path class="region RUS" d="M255.2,123.5 254.7,125.2 256.0,124.6 258.7,125.2 260.4,127.2 260.9,128.7 260.1,130.4 258.6,131.3 255.0,132.7 253.8,133.5 255.0,134.3 256.5,135.5 257.7,135.0 257.7,137.4 258.5,136.6 260.5,136.3 264.3,137.4 264.3,139.1 269.5,140.0 269.8,137.2 272.4,138.0 274.3,138.0 276.4,139.9 277.0,142.2 276.3,143.8 278.1,146.7 280.4,148.2 281.4,144.2 283.8,145.7 286.0,144.5 288.8,145.4 289.6,144.2 292.0,144.5 290.2,141.2 291.5,139.4 303.6,139.4 305.6,141.2 310.2,142.9 315.0,140.5 317.8,140.2 319.7,141.1 321.1,143.7 323.4,144.0 324.6,142.6 326.7,141.5 329.5,141.0 331.4,139.4 335.8,141.1 336.4,139.2 333.7,137.8 333.0,136.1 337.2,134.8 339.1,133.1 343.4,132.4 346.2,132.5 358.9,144.0 358.8,146.5 357.0,147.5 359.7,148.3 362.9,150.2 364.3,150.6 365.7,151.8 366.2,152.8 363.2,154.1 361.6,159.2 360.6,160.5 360.3,164.3 359.7,167.8 360.2,169.7 356.2,168.6 353.8,173.8 352.1,172.8 351.5,175.2 348.8,175.9 349.7,178.5 349.5,183.1 350.4,184.6 353.1,184.5 355.9,190.0 354.1,191.0 355.0,194.6 356.7,195.8 354.0,199.4 355.5,204.1 352.6,206.4 353.7,210.7 351.9,215.7 349.9,213.2 346.4,207.8 341.5,199.4 340.1,193.6 340.8,190.6 340.1,188.8 342.8,186.8 343.8,180.6 344.8,175.5 346.2,171.1 344.3,165.5 342.5,166.7 343.3,170.1 341.2,176.1 337.3,172.1 333.3,175.1 331.6,183.1 334.2,185.0 330.2,187.4 327.2,188.8 326.2,185.9 322.8,186.2 321.0,188.8 314.3,189.6 307.6,192.1 301.9,201.2 294.1,212.0 298.1,212.2 299.7,214.7 302.3,215.3 303.6,213.0 306.4,212.9 310.9,217.0 311.7,220.5 310.4,225.1 311.1,230.1 311.0,237.1 307.6,243.9 307.1,247.0 303.6,252.5 298.2,260.6 294.2,263.5 292.2,263.7 290.1,261.7 286.0,265.1 285.5,266.6 285.0,265.8 284.9,263.6 286.6,263.4 286.8,258.2 285.8,254.6 288.4,252.9 292.1,253.5 293.9,249.1 294.5,244.3 295.5,242.6 296.6,238.6 292.0,240.3 289.6,242.1 285.1,242.3 283.8,238.3 280.3,235.3 275.4,234.0 274.4,229.8 273.4,227.2 272.4,225.3 270.8,221.0 268.6,219.4 264.7,218.0 261.3,217.9 258.0,218.5 255.7,220.4 257.0,221.5 256.8,223.9 255.2,225.1 252.2,229.4 252.1,231.3 247.8,233.6 244.7,231.6 241.4,231.5 240.2,229.9 238.6,229.2 234.0,231.6 230.3,231.6 227.6,232.2 224.3,230.8 221.8,230.3 220.7,227.8 218.7,225.2 216.3,224.0 212.8,223.7 210.2,223.8 207.1,221.0 207.8,217.8 205.3,215.8 203.3,214.6 201.3,212.0 197.1,215.3 197.1,218.0 193.6,219.9 190.5,217.6 188.2,216.5 187.5,214.0 185.1,212.8 183.7,210.8 179.4,211.0 173.4,212.2 169.7,211.5 169.8,208.5 166.8,207.5 166.9,205.3 165.9,203.8 166.3,201.0 165.6,199.7 162.2,198.8 161.0,195.0 158.7,196.2 161.3,184.3 161.3,180.1 162.7,179.5 156.2,179.4 154.5,178.3 156.2,176.6 155.3,173.7 153.1,173.1 155.7,169.3 154.0,166.2 151.5,166.3 147.3,163.8 146.0,163.9 140.7,159.3 139.1,159.6 137.7,162.7 135.8,162.0 135.2,163.1 132.6,163.0 132.2,167.6 130.4,168.6 129.1,166.2 127.8,166.6 128.2,162.9 126.6,160.3 124.3,159.7 125.3,151.0 124.2,148.4 119.3,147.6 116.9,149.3 118.3,146.0 114.3,147.3 113.7,148.3 111.0,149.2 109.2,152.5 109.7,153.8 108.0,156.8 106.3,158.0 106.1,159.4 104.0,160.1 102.9,158.7 99.3,159.5 96.9,163.9 94.9,165.5 92.1,171.1 90.6,171.0 89.8,171.3 89.7,170.2 91.1,167.1 91.0,166.4 91.4,164.5 92.5,162.7 92.7,160.2 92.0,159.4 92.5,158.6 93.5,154.5 93.6,151.1 94.0,148.9 93.6,148.9 96.1,144.3 97.2,141.1 99.0,138.0 99.5,139.1 102.1,138.7 103.3,136.7 104.7,138.6 105.4,138.1 104.8,136.7 106.3,135.8 107.2,136.1 107.5,137.8 108.6,137.3 110.4,135.6 112.2,135.2 113.1,134.5 114.1,131.1 114.0,130.1 115.6,127.9 115.1,126.9 116.4,123.9 117.0,123.5 118.5,122.0 118.8,120.5 119.9,119.8 120.5,119.8 122.6,117.6 122.4,116.0 122.7,115.4 122.0,115.4 122.2,114.7 124.5,113.1 125.7,112.1 126.0,112.3 125.6,113.7 126.3,114.0 127.3,113.0 128.1,111.6 128.7,111.4 129.4,110.4 131.9,108.3 132.8,108.2 134.5,107.2 135.7,105.3 135.4,104.7 136.4,104.1 137.7,102.1 139.9,100.7 141.7,99.9 142.7,98.8 143.7,99.1 147.2,97.4 149.1,97.6 149.8,97.2 151.4,98.1 153.6,96.0 157.8,97.3 159.7,97.8 161.6,97.7 164.6,95.0 167.0,94.7 170.2,92.8 173.4,92.7 178.2,90.3 181.0,90.6 184.0,88.4 186.8,88.0 186.9,88.8 188.2,90.1 189.5,90.8 186.8,93.0 185.7,96.0 181.2,101.3 179.3,102.8 176.7,103.8 174.5,103.4 173.3,101.9 176.6,95.9 176.1,95.2 173.0,97.9 167.1,100.0 165.9,101.9 164.8,103.3 166.7,102.8 168.4,101.4 169.9,101.7 167.5,105.5 168.6,106.1 171.4,104.2 175.5,105.4 175.4,106.5 174.2,108.1 177.1,107.7 179.3,105.8 181.8,105.4 184.2,103.7 183.4,107.1 181.3,108.6 180.5,107.5 178.3,108.4 177.2,109.8 178.5,111.1 181.1,110.3 183.6,111.6 188.4,113.5 188.6,114.3 185.7,114.6 185.9,116.0 187.6,116.0 188.7,117.8 191.1,118.4 189.5,120.8 192.7,120.4 194.2,118.1 195.7,117.9 196.5,121.2 196.3,123.2 195.0,129.3 197.4,128.5 198.4,126.3 199.1,125.7 198.6,124.4 200.5,123.5 202.9,121.2 204.0,120.4 208.6,119.7 212.2,117.9 213.4,118.0 214.4,120.5 212.7,122.0 209.2,123.4 208.6,124.7 206.5,126.8 201.7,130.3 200.7,132.9 198.1,134.4 191.5,136.6 192.2,138.0 193.8,137.4 195.7,137.7 197.6,136.5 200.0,135.9 201.2,133.8 203.8,132.3 203.1,131.2 204.7,129.5 208.7,127.4 210.3,124.3 214.0,123.8 216.2,121.7 216.6,122.0 215.2,123.8 211.8,126.1 212.1,127.4 214.0,125.1 216.7,125.2 218.7,126.4 218.7,129.2 220.3,126.2 223.5,123.2 225.6,123.6 227.6,125.0 229.9,125.8 230.6,123.8 233.4,122.5 234.5,122.9 237.5,122.3 240.1,123.0 241.0,122.3 243.6,122.9 243.8,123.9 247.0,123.0 248.6,123.6 249.7,122.3 251.3,121.2 254.0,120.5 255.0,121.9 253.4,122.4 255.2,123.5Z" id="polyF1S135P10" />
			<path class="region RUS" d="M255.7,118.7 250.4,118.5 254.3,114.9 255.2,114.7 255.6,115.1 256.6,117.4 255.7,118.7Z" id="polyF1S135P11" />
			<path class="region RUS" d="M235.1,93.3 233.9,92.5 233.2,92.6 232.3,92.2 233.2,91.4 234.6,91.4 234.5,90.3 235.4,91.1 235.7,91.7 234.6,92.1 235.7,92.1 236.5,92.3 235.8,93.2 235.1,93.3Z" id="polyF1S135P12" />
			<path class="region RUS" d="M252.7,115.6 250.8,115.5 249.4,113.8 249.2,112.2 250.5,109.9 250.1,109.0 253.3,107.7 255.1,107.6 255.1,109.5 254.6,112.9 252.7,115.6Z" id="polyF1S135P13" />
		</g>
		<g id="gRWA" />
		<g id="gSAH" />
		<g id="gSAU">
			<path class="region SAU" d="M36.1,235.6 36.6,233.8 36.9,232.0 37.4,230.5 37.7,228.0 38.7,223.9 39.7,220.5 40.6,216.5 40.8,214.8 42.2,210.1 43.3,207.6 44.2,205.8 46.1,200.9 46.8,198.5 47.1,196.5 48.2,193.9 48.6,193.4 49.6,191.1 50.0,189.7 54.6,179.4 54.7,178.2 57.3,175.2 56.8,178.4 57.5,178.6 58.2,178.2 58.5,179.6 59.2,179.1 59.6,179.4 61.9,174.1 63.1,177.5 63.5,177.6 63.0,181.2 61.8,186.8 58.4,199.8 59.3,204.5 59.6,207.0 58.8,209.1 59.4,210.8 57.9,214.5 57.8,216.4 57.3,218.0 57.0,221.0 56.3,222.5 55.6,223.3 55.1,224.7 54.8,226.4 54.0,229.0 54.0,230.4 54.4,230.8 53.9,232.6 53.5,233.4 52.2,237.8 54.7,247.0 55.3,246.8 54.7,250.3 50.9,255.5 46.1,251.2 42.9,245.0 41.6,244.0 39.7,245.6 39.1,244.9 39.4,243.2 39.1,242.3 38.6,239.4 38.6,238.6 38.0,235.6 37.8,235.1 37.9,233.2 37.2,234.1 36.7,235.7 36.1,235.6Z" id="polyF1S138P1" />
		</g>
		<g id="gSDN">
			<path class="region SDN" d="M28.9,233.8 30.1,227.6 30.7,224.9 31.3,222.9 31.5,221.4 31.4,221.9 31.5,220.4 30.6,224.2 30.4,224.4 30.1,225.4 31.2,219.7Z M41.0,187.0 46.1,175.1 46.7,173.9 45.7,176.8 48.7,171.1 45.8,181.4 44.0,191.5 43.2,201.9 41.6,205.8 41.4,205.7 39.8,209.3 38.1,214.1 37.3,218.5 36.5,218.9 36.3,217.5 35.9,217.6 33.4,223.0 32.9,224.5 32.0,226.9 31.1,228.9 30.7,228.9 30.1,230.1 29.8,231.2 29.7,230.8 28.9,233.8Z" id="polyF1S139P1" />
			<path class="region SDN" d="M28.9,233.8 28.2,236.9 28.3,235.5 28.1,236.4 27.2,243.2 26.3,250.5 26.2,251.0Z M31.2,219.7 30.3,224.3 30.1,225.4 30.4,224.4 30.6,224.2 31.5,220.4 31.4,221.9 31.5,221.4 31.3,222.9 30.7,224.9 30.1,227.6 28.9,233.8Z" id="polyF1S140P1" />
		</g>
		<g id="gSDS" />
		<g id="gSEN" />
		<g id="gSLB">
			<path class="region SLB" d="M414.6,440.6 415.4,441.2 412.9,442.2 411.9,441.1 413.9,440.8 414.6,440.6Z" id="polyF1S142P1" />
			<path class="region SLB" d="M410.3,440.9 408.9,441.5 406.7,442.1 406.0,442.0 406.4,440.8 408.8,440.2 409.8,440.3 410.3,440.9Z" id="polyF1S142P2" />
			<path class="region SLB" d="M413.4,438.8 412.8,439.6 410.5,438.2 409.9,436.8 411.2,436.2 412.2,438.0 413.4,438.8Z" id="polyF1S142P3" />
			<path class="region SLB" d="M407.4,437.9 407.4,438.4 404.7,438.3 402.8,438.0 401.5,437.6 402.1,437.1 403.7,437.1 406.6,437.3 407.4,437.9Z" id="polyF1S142P4" />
			<path class="region SLB" d="M399.0,438.3 398.3,438.8 396.7,438.7 395.2,438.0 395.5,437.4 397.6,437.9 399.0,438.3Z" id="polyF1S142P5" />
		</g>
		<g id="gSLE" />
		<g id="gSLV" />
		<g id="gSOL">
			<path class="region SOL" d="M33.3,275.3 32.5,276.1 31.4,277.0 30.8,274.7 29.6,261.7 29.7,259.5 30.2,254.0 31.2,252.7 31.2,254.2 30.9,256.1 30.8,258.7 31.0,260.1 31.8,261.8 32.5,264.4 33.4,265.8 33.9,266.9 34.3,267.3 34.8,268.7 33.3,275.3Z" id="polyF1S145P1" />
		</g>
		<g id="gSOM">
			<path class="region SOM" d="M35.6,270.3 36.2,271.4 37.0,271.5 37.3,272.5 37.1,273.5 36.5,275.2 36.1,277.0 35.6,277.6 34.6,280.5 32.1,285.6 30.7,288.2 29.6,289.6 28.4,290.9 27.6,290.8 26.7,289.9 26.2,289.9 25.8,290.8 25.7,292.1 25.5,287.6 25.8,275.5 26.3,274.2 26.5,273.9 26.7,275.6 27.4,275.8 28.0,279.3 31.4,277.0 32.5,276.1 33.3,275.3 34.8,268.7 35.1,269.5 35.6,270.3Z" id="polyF1S146P1" />
		</g>
		<g id="gSRB">
			<path class="region SRB" d="M106.9,106.7 105.6,108.3 104.4,109.2 103.0,110.9 103.4,111.0 102.8,111.8 102.5,111.6 101.9,112.3 101.4,112.2 100.3,113.1 98.6,114.9 98.0,114.8 97.3,115.0 96.8,115.5 96.6,115.4 96.9,114.5 97.1,114.0 97.3,113.8 97.5,113.8 98.1,113.5 98.2,113.2 100.7,110.5 100.7,110.2 99.8,110.6 99.9,110.2 100.0,110.3 101.6,108.3 102.9,106.9 102.8,107.3 104.0,106.7 105.6,105.1 106.6,104.8 107.0,104.1 107.7,104.2 108.8,103.1 110.2,102.0 110.3,103.0 109.6,104.3 107.9,105.9 106.9,106.7Z" id="polyF1S147P1" />
		</g>
		<g id="gSUR" />
		<g id="gSVK">
			<path class="region SVK" d="M121.2,96.4 120.9,96.6 121.0,97.1 119.4,98.6 119.6,99.3 118.9,100.3 118.8,101.3 116.8,103.6 116.2,103.5 115.1,103.8 114.9,103.6 116.7,101.2 116.8,100.7 116.3,100.7 116.3,100.0 116.6,99.7 116.6,99.1 116.8,98.4 116.3,98.6 116.7,97.3 117.4,96.5 118.7,95.2 119.9,94.5 120.7,94.4 120.2,95.2 120.2,95.6 120.5,95.5 120.5,95.8 121.1,95.6 121.0,95.9 121.4,95.9 121.2,96.4Z" id="polyF1S149P1" />
		</g>
		<g id="gSVN">
			<path class="region SVN" d="M117.5,91.9 116.3,93.5 116.3,94.1 115.4,95.6 115.7,95.7 115.5,96.0 114.3,96.9 114.4,95.9 113.3,96.3 113.4,95.9 112.6,96.3 113.1,95.5 114.0,94.7 113.7,94.6 114.7,93.3 114.7,93.5 116.2,92.5 117.5,91.9Z" id="polyF1S150P1" />
		</g>
		<g id="gSWE">
			<path class="region SWE" d="M175.9,83.7 173.7,83.0 171.3,83.7 169.2,82.4 167.2,80.6 162.6,80.7 159.6,82.2 156.9,83.9 153.6,83.7 153.6,82.4 148.1,83.4 145.4,83.5 146.8,81.7 144.8,81.6 145.8,79.9 149.2,78.6 153.8,76.6 159.3,74.5 160.8,74.8 162.3,75.4 166.1,75.1 168.4,74.1 173.1,73.4 175.9,73.8 175.0,74.9 176.2,75.1 177.7,74.6 181.7,75.7 187.5,76.8 186.9,77.8 188.9,77.8 187.3,79.7 189.8,79.6 189.7,80.2 183.9,83.7 177.9,84.7 176.2,85.4 175.9,83.7Z" id="polyF1S151P1" />
		</g>
		<g id="gSWZ" />
		<g id="gSYR">
			<path class="region SYR" d="M66.3,173.1 63.7,171.5 64.8,167.7 65.1,167.6 66.1,166.4 67.4,165.5 68.3,165.7 69.2,164.3 69.4,163.1 71.3,160.8 72.3,160.3 73.4,160.4 74.9,159.0 74.4,160.3 75.1,162.0 74.6,163.7 74.7,165.6 75.9,167.1 75.9,168.4 76.7,170.5 74.9,171.1 74.1,170.6 72.3,172.8 69.2,175.4 66.3,173.1Z" id="polyF1S153P1" />
		</g>
		<g id="gTCD">
			<path class="region TCD" d="M53.4,159.5 46.1,175.1 41.0,187.0Z" id="polyF1S154P1" />
		</g>
		<g id="gTGO" />
		<g id="gTHA">
			<path class="region THA" d="M172.0,378.2 168.7,375.4 165.4,374.4 166.3,371.6 163.0,370.5 162.2,374.6 158.0,382.2 158.0,385.0 160.5,386.0 161.8,389.8 162.2,393.2 164.2,396.0 166.6,397.2 168.5,399.7 167.1,400.7 164.5,400.3 164.3,398.4 161.2,395.8 160.5,396.2 159.1,394.3 158.6,392.3 155.0,387.2 154.2,389.1 153.7,386.8 154.3,384.7 155.7,381.5 157.9,378.4 160.4,375.6 159.3,371.6 159.6,369.9 159.4,367.6 157.4,363.7 156.8,361.4 158.2,361.2 160.0,358.3 158.9,355.2 157.0,351.5 155.9,347.4 157.5,347.3 159.9,343.6 162.5,344.3 164.9,343.3 167.2,343.1 168.5,344.9 168.3,347.3 170.8,348.3 169.2,352.2 168.8,355.8 173.0,354.7 174.1,355.7 176.3,356.2 177.2,355.1 180.1,356.2 182.6,360.2 182.3,364.2 185.0,368.4 184.5,371.7 183.1,373.1 179.5,371.5 174.4,370.8 171.6,373.3 172.0,378.2Z" id="polyF1S156P1" />
		</g>
		<g id="gTJK">
			<path class="region TJK" d="M115.9,220.0 114.5,220.4 112.9,217.9 111.4,219.7 113.5,221.4 115.1,224.8 119.1,227.7 117.5,231.5 118.4,231.7 119.2,233.6 118.3,235.0 117.4,237.3 115.2,235.5 114.0,234.0 111.8,234.4 110.7,234.0 109.5,234.1 109.5,232.2 111.5,229.3 111.0,228.6 111.9,227.7 111.4,225.9 109.8,226.3 108.7,227.6 108.1,227.8 107.0,226.6 105.4,227.6 105.2,226.3 103.2,226.0 103.0,225.0 106.3,222.5 107.6,219.5 106.9,217.3 108.4,216.2 109.8,218.0 111.9,216.9 114.0,215.3 116.9,216.9 115.4,218.1 115.0,219.4 115.9,220.0Z" id="polyF1S157P1" />
		</g>
		<g id="gTKM">
			<path class="region TKM" d="M89.0,216.7 90.8,213.7 89.9,212.1 90.5,206.7 89.8,204.7 89.7,200.8 89.2,199.0 88.2,198.7 87.5,197.1 85.3,197.4 84.0,196.2 85.6,193.6 88.5,190.6 88.6,187.9 90.7,186.4 90.3,184.8 92.8,182.7 92.9,185.4 94.6,186.2 95.6,182.9 96.9,180.6 95.5,179.8 93.4,181.8 94.9,179.2 96.2,179.1 97.8,180.8 97.7,183.0 96.2,186.8 96.9,187.6 98.1,189.9 99.3,188.0 101.2,188.6 103.7,188.4 103.9,192.7 101.9,195.4 101.8,196.8 103.4,198.8 103.3,200.1 101.4,204.4 101.3,208.9 101.1,211.8 101.5,215.5 102.7,219.6 101.2,221.7 100.8,221.0 100.6,219.1 99.5,220.0 97.7,219.0 95.5,221.4 94.0,221.3 92.4,220.2 91.0,221.3 89.6,220.2 89.0,216.7Z" id="polyF1S158P1" />
		</g>
		<g id="gTLS">
			<path class="region TLS" d="M264.0,464.1 264.5,463.5 268.2,462.9 271.2,462.9 272.6,462.5 274.2,462.9 272.6,463.7 268.1,464.9 264.5,465.6 264.4,464.7 264.0,464.1Z" id="polyF1S159P1" />
		</g>
		<g id="gTTO" />
		<g id="gTUN">
			<path class="region TUN" d="M84.5,113.2 90.8,106.3 94.0,102.8 95.7,101.2 95.8,101.3 97.2,100.2 99.6,98.1 100.4,97.6 99.5,99.0 98.1,100.6 97.0,101.5 96.5,102.5 96.0,103.0 95.6,102.9 94.6,103.8 93.4,105.0 91.7,106.4 91.7,106.1 90.2,107.6 89.3,108.7 87.8,110.2 86.9,111.4 85.4,112.9 85.6,112.4 85.4,112.5 85.8,111.8 84.1,113.7 84.5,113.2Z" id="polyF1S161P1" />
		</g>
		<g id="gTUR">
			<path class="region TUR" d="M87.3,147.8 86.2,151.8 86.7,153.9 86.6,156.0 88.3,157.1 88.7,159.3 87.6,162.6 86.7,163.9 85.3,165.0 84.9,167.3 84.2,169.0 83.2,168.3 80.2,172.2 79.3,172.6 77.4,176.1 76.7,175.5 77.3,174.0 77.2,171.1 76.7,170.5 75.9,168.4 75.9,167.1 74.7,165.6 74.6,163.7 75.1,162.0 74.4,160.3 74.9,159.0 73.4,160.4 72.3,160.3 73.5,158.3 74.5,158.1 74.3,157.0 75.0,154.5 73.7,154.4 73.8,151.3 75.4,148.1 75.9,145.6 75.0,146.1 75.0,144.8 76.8,141.3 77.4,138.9 80.4,135.3 82.3,132.4 84.1,131.7 85.8,129.3 87.7,129.5 87.0,132.7 88.9,131.9 87.7,136.2 89.2,137.2 89.7,139.0 89.5,142.4 87.3,147.8Z" id="polyF1S162P1" />
			<path class="region TUR" d="M88.5,128.7 87.5,128.2 89.0,126.5 89.6,126.1 89.8,126.3 91.3,125.6 92.4,124.1 92.7,125.5 91.8,127.6 90.6,128.6 89.3,131.2 88.7,131.3 89.1,129.0 88.5,128.7Z" id="polyF1S162P2" />
		</g>
		<g id="gTWN">
			<path class="region TWN" d="M252.2,342.9 249.5,349.4 247.7,352.7 245.7,349.0 245.4,345.9 248.0,342.0 251.3,339.0 253.0,340.4 252.2,342.9Z" id="polyF1S163P1" />
		</g>
		<g id="gTZA" />
		<g id="gUGA">
			<circle class="region UGA" cx="26.16" cy="250.98" id="pointF1S165P1" r="0.5" />
		</g>
		<g id="gUKR">
			<path class="region UKR" d="M122.2,114.7 122.0,115.4 122.7,115.4 122.4,116.0 122.6,117.6 120.5,119.8 119.9,119.8 118.8,120.5 118.5,122.0 117.0,123.5 116.4,123.9 115.1,126.9 115.6,127.9 114.0,130.1 114.1,131.1 113.1,134.5 112.2,135.2 110.4,135.6 108.6,137.3 107.5,137.8 107.2,136.1 106.3,135.8 104.8,136.7 104.6,135.4 103.6,134.8 103.4,133.1 102.4,132.3 100.4,133.8 99.6,135.3 99.7,137.2 98.6,137.6 98.2,135.8 96.6,134.4 97.4,132.8 98.8,132.2 99.9,129.4 100.5,129.3 101.3,130.5 102.1,129.4 103.3,125.9 104.5,125.0 104.4,123.4 102.8,123.9 100.8,123.9 101.5,122.6 101.3,122.0 102.0,120.8 102.2,121.1 103.2,120.7 104.1,120.6 104.7,120.1 104.8,120.3 104.4,120.8 104.0,122.0 104.1,122.4 104.5,121.8 105.0,121.6 105.9,120.5 107.3,119.4 108.0,118.4 109.0,117.8 110.1,116.5 110.4,115.6 111.8,113.7 111.8,112.7 111.4,112.5 111.7,111.7 111.1,111.7 111.2,110.5 111.0,110.1 112.0,108.8 112.5,107.6 113.3,106.3 112.9,105.9 113.8,105.3 115.1,103.8 116.2,103.5 116.8,103.6 116.5,104.1 118.1,102.9 120.1,103.2 120.2,103.9 121.0,103.6 124.3,101.4 124.1,102.1 124.6,102.6 124.3,103.9 123.4,105.8 122.1,108.1 121.7,109.5 121.0,110.4 121.4,110.7 120.5,111.6 120.4,113.1 119.9,114.0 121.6,113.2 122.2,113.3 122.2,114.7Z" id="polyF1S166P1" />
		</g>
		<g id="gURY" />
		<g id="gUSA">
			<circle class="region USA" cx="350.425" cy="373.43" id="pointF2S19P1" r="0.5" />
			<circle class="region USA" cx="347.085" cy="380.905" id="pointF2S20P1" r="0.5" />
		</g>
		<g id="gUZB">
			<path class="region UZB" d="M101.2,221.7 102.7,219.6 101.5,215.5 101.1,211.8 101.3,208.9 101.4,204.4 103.3,200.1 103.4,198.8 101.8,196.8 101.9,195.4 103.9,192.7 103.7,188.4 101.2,188.6 99.3,188.0 98.1,189.9 96.9,187.6 107.3,176.4 111.6,179.4 111.3,185.1 111.3,187.8 110.0,192.4 112.0,194.1 114.6,197.0 114.4,201.6 111.7,204.9 112.5,205.8 110.7,208.9 112.7,211.4 112.0,213.5 112.7,214.2 115.2,212.5 119.2,212.4 120.6,212.8 120.9,213.7 117.8,214.5 118.3,217.1 120.2,217.5 121.1,221.4 117.0,221.7 115.9,220.0 115.0,219.4 115.4,218.1 116.9,216.9 114.0,215.3 111.9,216.9 109.8,218.0 108.4,216.2 106.9,217.3 107.6,219.5 106.3,222.5 103.0,225.0 102.1,222.8 101.2,221.7Z" id="polyF1S169P1" />
		</g>
		<g id="gVEN" />
		<g id="gVNM">
			<path class="region VNM" d="M197.5,346.9 191.9,349.1 188.2,352.1 187.0,354.7 192.5,365.7 195.8,369.0 197.9,372.7 199.1,380.2 198.0,386.9 194.5,388.6 189.7,390.0 186.2,392.3 180.9,394.4 179.7,391.7 181.0,389.5 178.2,386.5 181.8,386.0 186.0,386.8 184.4,384.0 191.3,382.8 192.2,378.3 191.6,375.5 192.7,371.8 191.9,368.8 189.3,365.3 187.2,361.2 184.6,355.7 180.4,352.0 181.7,350.9 184.3,350.5 183.3,346.6 178.7,345.3 177.7,341.1 176.1,337.3 178.2,336.9 181.1,337.8 184.8,338.3 188.3,337.0 189.9,339.0 193.2,340.6 192.2,342.8 193.8,344.9 197.5,346.9Z" id="polyF1S171P1" />
		</g>
		<g id="gVUT">
			<path class="region VUT" d="M430.1,447.3 429.0,448.2 428.2,447.7 428.6,446.9 430.1,447.3Z" id="polyF1S172P1" />
			<path class="region VUT" d="M428.9,444.6 428.9,446.4 428.1,446.6 427.4,447.1 427.1,446.6 427.6,444.6 428.9,444.6Z" id="polyF1S172P2" />
			<circle class="region VUT" cx="428.02" cy="446.05" id="pointF2S26P1" r="0.5" />
		</g>
		<g id="gWEB" />
		<g id="gPSE">
			<path class="region PSE" d="M64.0,168.2 62.6,169.9 62.0,170.3 61.7,169.6 62.3,168.9 62.6,169.2 62.9,168.3 64.4,166.9 64.0,168.2Z" id="polyF1S173P1" />
		</g>
		<g id="gYEM">
			<path class="region YEM" d="M44.3,262.0 43.2,261.1 42.4,262.1 42.0,263.2 40.5,262.0 38.5,259.3 37.0,259.3 36.6,258.3 36.4,257.2 35.6,257.1 34.9,256.0 34.3,253.9 34.1,253.4 33.7,253.7 33.5,253.2 33.2,253.6 32.9,252.2 32.7,251.8 32.4,249.7 32.8,247.1 33.4,245.3 33.6,243.9 34.4,240.9 34.7,238.8 34.8,239.2 35.3,237.4 35.6,237.1 36.1,235.6 36.7,235.7 37.2,234.1 37.9,233.2 37.8,235.1 38.0,235.6 38.6,238.6 38.6,239.4 39.1,242.3 39.4,243.2 39.1,244.9 39.7,245.6 41.6,244.0 42.9,245.0 46.1,251.2 44.3,262.0Z" id="polyF1S174P1" />
		</g>
		<g id="gZAF" />
		<g id="gZMB" />
		<g id="gZWE" />
		<!-- Using data from 110m_cultural/110m_admin_0_tiny_countries.shp.shp -->
		<g id="gTCA" />
		<g id="gCOK" />
		<g id="gWSM">
			<circle class="region WSM" cx="485.535" cy="398.395" id="pointF2S3P1" r="0.5" />
		</g>
		<g id="gTON">
			<circle class="region TON" cx="471.065" cy="425.43" id="pointF2S4P1" r="0.5" />
		</g>
		<g id="gPYF" />
		<g id="gPCN" />
		<g id="gBRB" />
		<g id="gSTP" />
		<g id="gBAC" />
		<g id="gSHN" />
		<g id="gMLT">
			<circle class="region MLT" cx="88.665" cy="111.895" id="pointF2S12P1" r="0.5" />
		</g>
		<g id="gBHR">
			<circle class="region BHR" cx="56.22" cy="224.015" id="pointF2S13P1" r="0.5" />
		</g>
		<g id="gMDV">
			<circle class="region MDV" cx="73.235" cy="355.88" id="pointF2S14P1" r="0.5" />
		</g>
		<g id="gIOT" />
		<g id="gSGP">
			<circle class="region SGP" cx="174.51" cy="418.57" id="pointF2S16P1" r="0.5" />
		</g>
		<g id="gPLW">
			<circle class="region PLW" cx="305.445" cy="409.285" id="pointF2S18P1" r="0.5" />
		</g>
		<g id="gMNP" />
		<g id="gGUM" />
		<g id="gFSM">
			<circle class="region FSM" cx="401.785" cy="390.23" id="pointF2S21P1" r="0.5" />
		</g>
		<g id="gMHL">
			<circle class="region MHL" cx="438.35" cy="371.465" id="pointF2S22P1" r="0.5" />
		</g>
		<g id="gKIR">
			<circle class="region KIR" cx="453.605" cy="383.6" id="pointF2S23P1" r="0.5" />
		</g>
		<g id="gNRU">
			<circle class="region NRU" cx="433.725" cy="401.725" id="pointF2S24P1" r="0.5" />
		</g>
		<g id="gTUV">
			<circle class="region TUV" cx="468.985" cy="402.38" id="pointF2S25P1" r="0.5" />
		</g>
		<g id="gMUS">
			<circle class="region MUS" cx="54.76" cy="393.18" id="pointF2S27P1" r="0.5" />
		</g>
		<g id="gCOM" />
		<g id="gFRO" />
		<g id="gNJM" />
		<g id="gSPM" />
		<g id="gBMU" />
		<g id="gPAZ" />
		<g id="gESC" />
		<g id="gPMD" />
		<g id="gSGS" />
	</g>
	<g id="gLatLongLines">
		<path class="grid" d="M446.7,455.6 451.2,451.7 455.5,447.7 459.4,443.8 463.6,439.1 M86.3,439.0 89.8,442.8 93.4,446.6 97.4,450.4 100.7,453.4 104.6,456.7 108.6,459.9 113.3,463.5 117.6,466.5 122.9,470.0 127.3,472.7 132.0,475.5 137.2,478.4 141.9,480.8 148.0,483.8 152.3,485.7 158.6,488.4 164.1,490.6 169.6,492.7 176.3,495.0 182.1,496.8 188.6,498.8 193.8,500.2 200.9,501.9 206.9,503.3 214.5,504.8 220.3,505.9 226.6,506.9 234.0,507.9 241.1,508.7 247.4,509.3 253.4,509.7 260.2,510.1 267.7,510.3 273.4,510.4 281.0,510.4 287.8,510.2 294.9,509.8 300.9,509.4 307.7,508.8 313.6,508.2 320.7,507.3 327.3,506.3 333.9,505.1 340.0,503.9 347.2,502.4 352.2,501.2 358.1,499.7 364.7,497.8 370.9,495.9 375.6,494.4 382.2,492.0 388.1,489.8 393.8,487.4 399.7,484.8 404.9,482.4 409.4,480.1 414.4,477.5 419.5,474.6 424.2,471.8 428.8,468.9 434.1,465.4 438.6,462.1 443.0,458.7 446.7,455.6" id="lat-30" opacity="0.5" />
		<path class="grid" d="M473.3,373.5 476.2,371.1 479.7,367.9 485.6,362.2 490.1,357.4 495.3,351.5 499.7,346.0 502.5,342.1 504.4,339.3 506.4,336.2 508.4,333.0 511.6,327.2 513.4,323.7 514.8,320.7 517.4,314.5 518.8,310.9 519.9,307.6 521.6,301.8 522.4,298.1 523.1,294.8 524.1,288.6 524.6,284.7 524.8,281.6 525.0,275.1 M25.0,275.2 25.2,281.1 25.7,287.1 26.1,290.4 26.7,293.8 27.2,296.6 28.1,300.5 29.0,303.9 30.1,307.5 32.0,313.0 34.3,318.7 37.1,324.7 38.7,327.9 40.6,331.3 43.8,336.6 47.7,342.3 52.0,348.1 56.9,354.1 62.0,359.7 66.7,364.5 71.9,369.4 77.4,374.1 83.7,379.2 90.6,384.3 97.2,388.8 104.4,393.3 110.9,397.1 117.9,400.9 126.2,405.0 134.4,408.8 142.4,412.2 149.9,415.1 158.3,418.1 167.3,421.0 176.4,423.7 185.7,426.1 194.3,428.1 203.1,429.9 213.2,431.8 222.9,433.2 232.8,434.5 242.3,435.4 251.8,436.1 263.1,436.6 271.9,436.8 281.4,436.7 290.2,436.5 299.7,436.0 308.8,435.3 317.9,434.4 329.4,432.9 339.2,431.4 347.6,429.8 356.3,428.0 365.7,425.8 374.6,423.4 384.1,420.6 393.1,417.6 401.0,414.7 409.2,411.5 417.2,408.1 424.0,404.9 432.6,400.6 438.9,397.1 446.7,392.6 453.2,388.4 460.7,383.3 467.3,378.4 473.3,373.5" id="lat0" opacity="0.5" />
		<path class="grid" d="M446.7,265.0 451.6,260.7 455.9,256.7 459.8,252.8 464.1,247.9 468.0,243.2 471.3,238.8 474.4,234.3 477.5,229.3 480.1,224.7 482.4,220.0 484.2,215.8 485.4,212.7 486.4,209.8 488.1,204.6 489.3,199.5 490.4,193.9 491.0,189.3 491.4,184.4 491.5,179.0 491.3,173.6 490.9,169.0 490.1,163.9 489.1,158.8 487.8,153.7 486.1,148.7 484.1,143.5 481.9,138.3 479.6,133.9 476.9,129.1 473.7,124.1 470.6,119.7 467.3,115.3 463.9,111.2 M86.2,111.1 82.1,116.0 78.2,121.3 74.6,126.7 71.4,132.0 68.5,137.5 66.1,142.9 64.9,145.8 63.8,148.8 62.1,154.4 60.7,159.9 59.5,166.0 58.8,171.8 58.6,175.0 58.5,177.9 58.6,183.6 59.0,189.4 59.9,195.5 61.1,201.6 62.6,206.9 64.5,212.6 66.7,217.8 68.2,221.1 69.7,224.1 72.7,229.6 76.3,235.3 79.7,240.2 83.8,245.4 87.8,250.1 92.8,255.4 97.8,260.2 103.2,265.0 108.4,269.2 114.6,273.8 120.8,278.0 127.6,282.3 134.3,286.2 141.3,289.9 148.6,293.5 155.7,296.6 163.4,299.8 171.0,302.6 178.7,305.2 187.2,307.8 195.6,310.0 203.4,311.9 212.0,313.8 220.7,315.3 230.3,316.8 238.4,317.8 247.8,318.7 256.4,319.3 265.1,319.7 273.8,319.8 282.8,319.7 291.9,319.4 301.3,318.8 310.3,317.9 319.9,316.8 328.4,315.5 338.6,313.6 346.1,312.0 353.6,310.3 362.6,307.8 371.2,305.2 378.9,302.6 387.1,299.6 393.8,296.8 401.3,293.5 408.5,290.0 416.4,285.8 422.3,282.4 429.1,278.1 435.6,273.7 441.5,269.2 446.7,265.0" id="lat30" opacity="0.5" />
		<path class="grid" d="M374.1,159.2 377.7,156.0 381.9,151.9 385.6,147.7 388.8,143.4 391.7,139.0 393.9,135.0 395.8,130.6 396.8,128.2 397.5,126.1 398.6,121.9 399.4,117.7 399.7,115.2 399.9,113.1 400.0,108.7 399.9,106.2 399.6,103.8 399.3,101.5 398.9,99.1 397.8,94.8 397.1,92.6 396.2,90.3 395.4,88.1 394.2,85.7 392.0,81.5 389.4,77.3 387.8,75.0 386.1,72.9 384.2,70.6 382.4,68.5 378.9,65.0 375.0,61.4 370.8,58.0 366.8,55.0 361.9,51.8 356.9,48.8 351.1,45.8 345.3,43.1 339.4,40.6 333.0,38.3 326.5,36.2 320.2,34.5 313.5,33.0 306.8,31.7 300.0,30.7 293.5,29.9 285.5,29.3 279.0,29.1 271.6,29.1 264.6,29.3 257.0,29.9 249.9,30.7 243.1,31.7 236.6,33.0 230.5,34.4 223.8,36.1 217.5,38.1 211.2,40.4 205.7,42.6 200.3,45.1 194.5,48.0 188.8,51.3 183.6,54.8 179.6,57.7 174.9,61.5 170.9,65.2 167.2,69.0 163.6,73.3 160.6,77.3 158.0,81.5 155.8,85.6 153.9,89.9 153.1,92.1 152.3,94.6 151.4,98.0 150.7,101.5 150.2,105.3 150.0,108.5 150.0,111.2 150.2,114.8 150.7,118.4 151.4,121.9 152.2,124.9 153.1,128.0 154.4,131.1 156.0,134.8 157.8,138.1 159.6,141.0 161.7,144.1 164.0,147.1 166.6,150.2 169.6,153.4 172.5,156.2 175.4,158.8 178.8,161.6 182.2,164.2 186.1,166.8 189.4,168.9 193.4,171.3 197.5,173.4 201.3,175.3 205.6,177.2 209.6,178.9 214.2,180.6 219.0,182.3 223.7,183.7 228.9,185.1 233.6,186.3 238.0,187.2 243.0,188.1 248.1,188.9 253.9,189.7 258.6,190.1 263.2,190.5 268.4,190.7 274.1,190.8 280.6,190.8 284.8,190.6 289.3,190.3 294.5,189.8 299.4,189.3 305.0,188.5 310.0,187.6 315.2,186.5 319.9,185.4 324.8,184.1 329.0,182.9 334.0,181.3 338.8,179.5 343.4,177.7 347.7,175.7 351.7,173.8 355.6,171.8 359.7,169.4 363.8,166.9 367.6,164.3 371.1,161.6 374.1,159.2" id="lat60" opacity="0.5" />
		<path class="grid" d="M436.2,466.1 439.0,463.6 442.0,460.7 444.6,458.0 447.2,455.0 449.6,452.1 452.0,448.9 454.6,445.1 456.7,441.6 458.6,438.2 460.6,434.3 462.7,429.7 464.2,426.0 465.7,422.0 467.1,417.6 468.2,413.9 469.3,409.6 470.1,405.7 471.1,400.6 471.8,396.0 472.4,391.4 472.8,386.6 473.1,381.8 473.2,377.5 473.3,372.5 473.2,367.5 473.0,362.4 472.6,357.9 472.1,352.0 471.5,347.1 470.6,341.1 469.9,336.8 468.8,331.0 467.6,325.2 466.2,319.8 464.8,314.2 463.2,308.7 461.8,303.9 459.9,297.9 458.2,293.1 456.0,287.1 454.3,282.6 451.5,275.9 449.1,270.3 446.5,264.7 444.1,259.4 441.3,253.8 438.2,247.9 435.4,242.7 432.3,237.2 429.1,231.6 422.6,221.1 415.9,211.0 412.0,205.3 407.9,199.7 403.5,193.7 399.8,188.9 391.8,179.1 383.6,169.5 378.9,164.3 374.4,159.5" id="long-180" opacity="0.5" />
		<path class="grid" d="M520.0,324.8 521.3,317.6 522.1,311.1 522.6,304.1 522.8,297.2 522.7,290.5 522.5,286.5 522.2,282.5 521.3,274.8 520.2,268.1 518.6,260.8 516.7,253.4 514.5,246.5 511.8,238.9 508.9,232.0 505.8,225.2 502.1,218.1 498.3,211.4 494.0,204.5 489.9,198.4 485.2,192.0 479.7,185.1 474.2,178.7 468.4,172.4 462.6,166.5 456.6,160.8 450.3,155.2 443.7,149.8 437.0,144.6 429.3,139.0 422.1,134.2 414.7,129.5 406.3,124.6 399.3,120.7" id="long-150" opacity="0.5" />
		<path class="grid" d="M485.5,140.2 483.5,137.1 481.4,134.1 477.2,128.7 472.8,123.6 468.3,118.9 463.3,114.2 458.0,109.7 452.5,105.5 449.1,103.1 446.1,101.2 440.3,97.6 437.5,96.0 433.4,93.9 426.6,90.6 420.1,87.8 413.1,85.2 405.8,82.9 398.4,80.8 390.9,79.1" id="long-120" opacity="0.5" />
		<path class="grid" d="M386.2,51.1 382.7,49.5 378.5,48.0 374.1,46.8 370.0,46.0 365.8,45.5 361.2,45.2 356.4,45.3 351.4,45.8" id="long-90" opacity="0.5" />
		<path class="grid" d="M296.3,25.9 295.6,25.9 295.1,26.1 294.5,26.4 293.9,26.8 292.6,28.0 291.4,29.7" id="long-60" opacity="0.5" />
		<path class="grid" d="M210.4,33.5 212.3,33.1 214.2,32.8 216.4,32.8 218.3,32.9 220.2,33.1 222.4,33.6 224.6,34.2 227.1,35.1" id="long-30" opacity="0.5" />
		<path class="grid" d="M114.0,83.8 117.1,81.3 120.3,78.9 123.8,76.6 127.2,74.5 130.2,72.8 133.6,71.1 137.0,69.6 141.3,67.8 144.9,66.5 148.9,65.3 153.2,64.1 157.6,63.1 162.1,62.2 166.7,61.5 171.1,61.0 175.6,60.7" id="long0" opacity="0.5" />
		<path class="grid" d="M30.1,224.9 31.4,219.1 32.8,213.7 34.3,209.0 35.9,204.3 37.9,199.3 40.0,194.4 41.9,190.2 44.7,184.8 47.5,179.9 50.2,175.5 53.4,170.7 56.6,166.3 59.7,162.2 62.8,158.4 66.2,154.5 70.5,149.8 74.7,145.6 78.6,141.9 83.2,137.9 87.4,134.4 92.0,130.8 97.0,127.2 101.3,124.2 106.3,121.0 111.7,117.6 116.3,115.0 121.7,112.1 126.9,109.5 132.8,106.7 138.9,104.1 145.1,101.6 150.7,99.5" id="long30" opacity="0.5" />
		<path class="grid" d="M64.3,409.5 62.4,406.4 60.1,402.4 58.3,399.1 56.7,395.8 55.0,392.2 53.4,388.1 51.9,384.1 50.7,380.5 49.4,376.3 48.2,372.1 47.3,368.1 46.5,364.0 45.9,360.6 45.2,356.1 44.7,351.9 44.3,347.1 44.1,342.8 44.0,337.9 44.0,333.9 44.2,328.8 44.5,324.1 44.8,320.3 45.3,316.2 45.9,311.8 46.8,306.3 47.7,301.8 49.6,293.8 50.9,288.9 52.3,284.0 55.0,275.6 58.3,266.9 60.1,262.7 62.4,257.5 64.6,252.6 66.8,248.1 69.2,243.6 71.6,239.1 73.9,235.0 76.8,230.2 80.2,224.8 83.0,220.4 88.6,212.3 92.0,207.7 95.2,203.5 102.0,195.0 109.1,186.8 116.6,178.7 120.7,174.4 125.0,170.2 133.1,162.6 141.5,155.2 150.2,148.0 159.1,141.1" id="long60" opacity="0.5" />
		<path class="grid" d="M163.6,498.8 160.6,497.2 157.8,495.5 155.3,493.7 152.8,491.6 150.6,489.7 148.0,487.2 145.9,484.8 143.3,481.6 141.6,479.3 139.6,476.2 137.7,473.1 135.7,469.3 133.7,465.1 132.3,461.7 130.9,457.9 129.5,453.9 128.3,449.8 127.3,445.9 126.3,441.5 125.5,437.3 124.8,432.7 124.2,428.3 123.7,423.5 123.2,417.9 122.9,412.8 122.8,407.6 122.7,403.3 122.8,397.3 123.0,391.4 123.3,386.2 123.8,380.2 124.3,374.5 125.1,367.9 125.8,362.4 126.8,356.0 127.8,350.0 130.3,337.8 133.0,325.7 135.9,314.7 137.9,307.6 139.9,300.8 143.9,288.4 146.2,282.0 148.6,275.2 151.7,267.2 154.0,261.2 159.2,248.8 164.4,237.3 170.8,223.9 176.9,211.9 180.8,204.6 184.0,198.9 190.7,187.3 194.5,181.0 198.6,174.5" id="long90" opacity="0.5" />
		<path class="grid" d="M253.7,524.1 253.0,523.9 252.3,523.5 251.6,522.9 251.0,522.2 250.2,521.0 249.6,519.7 248.5,516.6 247.4,512.5 246.4,508.0 245.4,501.3 244.7,495.3 244.0,487.8 243.4,479.8 242.9,470.7 242.6,460.9 242.4,450.2 242.3,440.0 242.3,428.6 242.4,416.7 243.0,392.3 243.5,378.6 244.0,365.0 245.4,339.0 247.4,308.3 249.6,279.3 252.3,248.9 255.4,218.1 258.6,190.6" id="long120" opacity="0.5" />
		<path class="grid" d="M339.7,516.5 341.9,515.8 343.8,514.9 345.8,513.8 347.6,512.5 349.4,511.0 351.0,509.4 352.5,507.7 354.1,505.6 355.6,503.5 357.0,501.2 358.3,498.8 359.9,495.4 361.1,492.5 362.3,489.1 363.4,485.6 364.4,482.4 365.3,478.9 366.2,474.9 366.9,471.2 367.7,466.2 368.9,457.8 369.4,452.8 369.8,447.2 370.4,436.5 370.6,426.2 370.5,415.0 370.0,403.0 369.2,390.6 368.2,378.9 366.8,365.8 365.0,351.5 362.9,337.3 360.7,324.6 358.3,311.7 355.2,297.0 352.0,282.6 348.6,268.7 344.6,253.1 340.7,239.2 336.4,225.1 332.1,211.5 327.3,197.4 322.9,185.1" id="long150" opacity="0.5" />
	</g>
	<g id="gGlobeDecoration">
		<circle class="mapshadow" cx="275" cy="275" id="cGlobeShade" r="250" />
		<circle class="mapborder" cx="275" cy="275" id="cGlobeBorder" r="250" />
	</g>
	<!-- 
	Generated using the Perl SVG Module V2.50
	by Ronan Oger
	Info: http://www.roitsystems.com/
 -->
</svg>